%TF.GenerationSoftware,KiCad,Pcbnew,7.0.7*%
%TF.CreationDate,2023-10-09T15:43:46-04:00*%
%TF.ProjectId,dmxaudio,646d7861-7564-4696-9f2e-6b696361645f,rev?*%
%TF.SameCoordinates,Original*%
%TF.FileFunction,Legend,Top*%
%TF.FilePolarity,Positive*%
%FSLAX46Y46*%
G04 Gerber Fmt 4.6, Leading zero omitted, Abs format (unit mm)*
G04 Created by KiCad (PCBNEW 7.0.7) date 2023-10-09 15:43:46*
%MOMM*%
%LPD*%
G01*
G04 APERTURE LIST*
G04 Aperture macros list*
%AMRoundRect*
0 Rectangle with rounded corners*
0 $1 Rounding radius*
0 $2 $3 $4 $5 $6 $7 $8 $9 X,Y pos of 4 corners*
0 Add a 4 corners polygon primitive as box body*
4,1,4,$2,$3,$4,$5,$6,$7,$8,$9,$2,$3,0*
0 Add four circle primitives for the rounded corners*
1,1,$1+$1,$2,$3*
1,1,$1+$1,$4,$5*
1,1,$1+$1,$6,$7*
1,1,$1+$1,$8,$9*
0 Add four rect primitives between the rounded corners*
20,1,$1+$1,$2,$3,$4,$5,0*
20,1,$1+$1,$4,$5,$6,$7,0*
20,1,$1+$1,$6,$7,$8,$9,0*
20,1,$1+$1,$8,$9,$2,$3,0*%
G04 Aperture macros list end*
%ADD10C,0.150000*%
%ADD11C,0.100000*%
%ADD12C,0.120000*%
%ADD13RoundRect,0.250000X0.620000X0.845000X-0.620000X0.845000X-0.620000X-0.845000X0.620000X-0.845000X0*%
%ADD14O,1.740000X2.190000*%
%ADD15C,2.700000*%
%ADD16RoundRect,0.150000X-0.150000X0.825000X-0.150000X-0.825000X0.150000X-0.825000X0.150000X0.825000X0*%
%ADD17R,1.600000X1.600000*%
%ADD18C,1.600000*%
%ADD19R,1.300000X1.300000*%
%ADD20C,1.300000*%
%ADD21O,3.400000X1.500000*%
%ADD22RoundRect,0.250000X0.650000X-0.412500X0.650000X0.412500X-0.650000X0.412500X-0.650000X-0.412500X0*%
%ADD23C,3.250000*%
%ADD24R,1.900000X1.900000*%
%ADD25C,1.900000*%
%ADD26C,2.100000*%
%ADD27C,2.600000*%
%ADD28R,1.400000X1.400000*%
%ADD29C,1.400000*%
%ADD30RoundRect,0.237500X-0.287500X-0.237500X0.287500X-0.237500X0.287500X0.237500X-0.287500X0.237500X0*%
%ADD31RoundRect,0.237500X-0.250000X-0.237500X0.250000X-0.237500X0.250000X0.237500X-0.250000X0.237500X0*%
%ADD32C,3.200000*%
%ADD33R,1.500000X1.500000*%
%ADD34C,1.500000*%
%ADD35R,2.000000X2.000000*%
%ADD36C,2.000000*%
%ADD37RoundRect,0.237500X0.250000X0.237500X-0.250000X0.237500X-0.250000X-0.237500X0.250000X-0.237500X0*%
%ADD38O,1.600000X1.600000*%
%ADD39C,1.524000*%
%ADD40RoundRect,0.250000X-0.620000X-0.845000X0.620000X-0.845000X0.620000X0.845000X-0.620000X0.845000X0*%
%ADD41R,1.524000X1.524000*%
%ADD42C,3.500000*%
%ADD43RoundRect,0.250000X0.845000X-0.620000X0.845000X0.620000X-0.845000X0.620000X-0.845000X-0.620000X0*%
%ADD44O,2.190000X1.740000*%
%ADD45RoundRect,0.237500X0.237500X-0.300000X0.237500X0.300000X-0.237500X0.300000X-0.237500X-0.300000X0*%
%ADD46O,1.600000X2.000000*%
G04 APERTURE END LIST*
D10*
X144733333Y-92867819D02*
X144733333Y-91867819D01*
X144733333Y-91867819D02*
X144971428Y-91867819D01*
X144971428Y-91867819D02*
X145114285Y-91915438D01*
X145114285Y-91915438D02*
X145209523Y-92010676D01*
X145209523Y-92010676D02*
X145257142Y-92105914D01*
X145257142Y-92105914D02*
X145304761Y-92296390D01*
X145304761Y-92296390D02*
X145304761Y-92439247D01*
X145304761Y-92439247D02*
X145257142Y-92629723D01*
X145257142Y-92629723D02*
X145209523Y-92724961D01*
X145209523Y-92724961D02*
X145114285Y-92820200D01*
X145114285Y-92820200D02*
X144971428Y-92867819D01*
X144971428Y-92867819D02*
X144733333Y-92867819D01*
X145733333Y-92867819D02*
X145733333Y-91867819D01*
X145733333Y-91867819D02*
X146066666Y-92582104D01*
X146066666Y-92582104D02*
X146399999Y-91867819D01*
X146399999Y-91867819D02*
X146399999Y-92867819D01*
X146780952Y-91867819D02*
X147447618Y-92867819D01*
X147447618Y-91867819D02*
X146780952Y-92867819D01*
X147780952Y-92582104D02*
X148257142Y-92582104D01*
X147685714Y-92867819D02*
X148019047Y-91867819D01*
X148019047Y-91867819D02*
X148352380Y-92867819D01*
X149114285Y-92201152D02*
X149114285Y-92867819D01*
X148685714Y-92201152D02*
X148685714Y-92724961D01*
X148685714Y-92724961D02*
X148733333Y-92820200D01*
X148733333Y-92820200D02*
X148828571Y-92867819D01*
X148828571Y-92867819D02*
X148971428Y-92867819D01*
X148971428Y-92867819D02*
X149066666Y-92820200D01*
X149066666Y-92820200D02*
X149114285Y-92772580D01*
X150019047Y-92867819D02*
X150019047Y-91867819D01*
X150019047Y-92820200D02*
X149923809Y-92867819D01*
X149923809Y-92867819D02*
X149733333Y-92867819D01*
X149733333Y-92867819D02*
X149638095Y-92820200D01*
X149638095Y-92820200D02*
X149590476Y-92772580D01*
X149590476Y-92772580D02*
X149542857Y-92677342D01*
X149542857Y-92677342D02*
X149542857Y-92391628D01*
X149542857Y-92391628D02*
X149590476Y-92296390D01*
X149590476Y-92296390D02*
X149638095Y-92248771D01*
X149638095Y-92248771D02*
X149733333Y-92201152D01*
X149733333Y-92201152D02*
X149923809Y-92201152D01*
X149923809Y-92201152D02*
X150019047Y-92248771D01*
X150495238Y-92867819D02*
X150495238Y-92201152D01*
X150495238Y-91867819D02*
X150447619Y-91915438D01*
X150447619Y-91915438D02*
X150495238Y-91963057D01*
X150495238Y-91963057D02*
X150542857Y-91915438D01*
X150542857Y-91915438D02*
X150495238Y-91867819D01*
X150495238Y-91867819D02*
X150495238Y-91963057D01*
X151114285Y-92867819D02*
X151019047Y-92820200D01*
X151019047Y-92820200D02*
X150971428Y-92772580D01*
X150971428Y-92772580D02*
X150923809Y-92677342D01*
X150923809Y-92677342D02*
X150923809Y-92391628D01*
X150923809Y-92391628D02*
X150971428Y-92296390D01*
X150971428Y-92296390D02*
X151019047Y-92248771D01*
X151019047Y-92248771D02*
X151114285Y-92201152D01*
X151114285Y-92201152D02*
X151257142Y-92201152D01*
X151257142Y-92201152D02*
X151352380Y-92248771D01*
X151352380Y-92248771D02*
X151399999Y-92296390D01*
X151399999Y-92296390D02*
X151447618Y-92391628D01*
X151447618Y-92391628D02*
X151447618Y-92677342D01*
X151447618Y-92677342D02*
X151399999Y-92772580D01*
X151399999Y-92772580D02*
X151352380Y-92820200D01*
X151352380Y-92820200D02*
X151257142Y-92867819D01*
X151257142Y-92867819D02*
X151114285Y-92867819D01*
X153209523Y-92867819D02*
X152876190Y-92391628D01*
X152638095Y-92867819D02*
X152638095Y-91867819D01*
X152638095Y-91867819D02*
X153019047Y-91867819D01*
X153019047Y-91867819D02*
X153114285Y-91915438D01*
X153114285Y-91915438D02*
X153161904Y-91963057D01*
X153161904Y-91963057D02*
X153209523Y-92058295D01*
X153209523Y-92058295D02*
X153209523Y-92201152D01*
X153209523Y-92201152D02*
X153161904Y-92296390D01*
X153161904Y-92296390D02*
X153114285Y-92344009D01*
X153114285Y-92344009D02*
X153019047Y-92391628D01*
X153019047Y-92391628D02*
X152638095Y-92391628D01*
X154019047Y-92820200D02*
X153923809Y-92867819D01*
X153923809Y-92867819D02*
X153733333Y-92867819D01*
X153733333Y-92867819D02*
X153638095Y-92820200D01*
X153638095Y-92820200D02*
X153590476Y-92724961D01*
X153590476Y-92724961D02*
X153590476Y-92344009D01*
X153590476Y-92344009D02*
X153638095Y-92248771D01*
X153638095Y-92248771D02*
X153733333Y-92201152D01*
X153733333Y-92201152D02*
X153923809Y-92201152D01*
X153923809Y-92201152D02*
X154019047Y-92248771D01*
X154019047Y-92248771D02*
X154066666Y-92344009D01*
X154066666Y-92344009D02*
X154066666Y-92439247D01*
X154066666Y-92439247D02*
X153590476Y-92534485D01*
X154400000Y-92201152D02*
X154638095Y-92867819D01*
X154638095Y-92867819D02*
X154876190Y-92201152D01*
X155257143Y-92867819D02*
X155257143Y-92201152D01*
X155257143Y-91867819D02*
X155209524Y-91915438D01*
X155209524Y-91915438D02*
X155257143Y-91963057D01*
X155257143Y-91963057D02*
X155304762Y-91915438D01*
X155304762Y-91915438D02*
X155257143Y-91867819D01*
X155257143Y-91867819D02*
X155257143Y-91963057D01*
X155685714Y-92820200D02*
X155780952Y-92867819D01*
X155780952Y-92867819D02*
X155971428Y-92867819D01*
X155971428Y-92867819D02*
X156066666Y-92820200D01*
X156066666Y-92820200D02*
X156114285Y-92724961D01*
X156114285Y-92724961D02*
X156114285Y-92677342D01*
X156114285Y-92677342D02*
X156066666Y-92582104D01*
X156066666Y-92582104D02*
X155971428Y-92534485D01*
X155971428Y-92534485D02*
X155828571Y-92534485D01*
X155828571Y-92534485D02*
X155733333Y-92486866D01*
X155733333Y-92486866D02*
X155685714Y-92391628D01*
X155685714Y-92391628D02*
X155685714Y-92344009D01*
X155685714Y-92344009D02*
X155733333Y-92248771D01*
X155733333Y-92248771D02*
X155828571Y-92201152D01*
X155828571Y-92201152D02*
X155971428Y-92201152D01*
X155971428Y-92201152D02*
X156066666Y-92248771D01*
X156542857Y-92867819D02*
X156542857Y-92201152D01*
X156542857Y-91867819D02*
X156495238Y-91915438D01*
X156495238Y-91915438D02*
X156542857Y-91963057D01*
X156542857Y-91963057D02*
X156590476Y-91915438D01*
X156590476Y-91915438D02*
X156542857Y-91867819D01*
X156542857Y-91867819D02*
X156542857Y-91963057D01*
X157161904Y-92867819D02*
X157066666Y-92820200D01*
X157066666Y-92820200D02*
X157019047Y-92772580D01*
X157019047Y-92772580D02*
X156971428Y-92677342D01*
X156971428Y-92677342D02*
X156971428Y-92391628D01*
X156971428Y-92391628D02*
X157019047Y-92296390D01*
X157019047Y-92296390D02*
X157066666Y-92248771D01*
X157066666Y-92248771D02*
X157161904Y-92201152D01*
X157161904Y-92201152D02*
X157304761Y-92201152D01*
X157304761Y-92201152D02*
X157399999Y-92248771D01*
X157399999Y-92248771D02*
X157447618Y-92296390D01*
X157447618Y-92296390D02*
X157495237Y-92391628D01*
X157495237Y-92391628D02*
X157495237Y-92677342D01*
X157495237Y-92677342D02*
X157447618Y-92772580D01*
X157447618Y-92772580D02*
X157399999Y-92820200D01*
X157399999Y-92820200D02*
X157304761Y-92867819D01*
X157304761Y-92867819D02*
X157161904Y-92867819D01*
X157923809Y-92201152D02*
X157923809Y-92867819D01*
X157923809Y-92296390D02*
X157971428Y-92248771D01*
X157971428Y-92248771D02*
X158066666Y-92201152D01*
X158066666Y-92201152D02*
X158209523Y-92201152D01*
X158209523Y-92201152D02*
X158304761Y-92248771D01*
X158304761Y-92248771D02*
X158352380Y-92344009D01*
X158352380Y-92344009D02*
X158352380Y-92867819D01*
X160114285Y-92867819D02*
X159542857Y-92867819D01*
X159828571Y-92867819D02*
X159828571Y-91867819D01*
X159828571Y-91867819D02*
X159733333Y-92010676D01*
X159733333Y-92010676D02*
X159638095Y-92105914D01*
X159638095Y-92105914D02*
X159542857Y-92153533D01*
X143638094Y-94477819D02*
X143638094Y-93477819D01*
X143638094Y-93858771D02*
X143733332Y-93811152D01*
X143733332Y-93811152D02*
X143923808Y-93811152D01*
X143923808Y-93811152D02*
X144019046Y-93858771D01*
X144019046Y-93858771D02*
X144066665Y-93906390D01*
X144066665Y-93906390D02*
X144114284Y-94001628D01*
X144114284Y-94001628D02*
X144114284Y-94287342D01*
X144114284Y-94287342D02*
X144066665Y-94382580D01*
X144066665Y-94382580D02*
X144019046Y-94430200D01*
X144019046Y-94430200D02*
X143923808Y-94477819D01*
X143923808Y-94477819D02*
X143733332Y-94477819D01*
X143733332Y-94477819D02*
X143638094Y-94430200D01*
X144447618Y-93811152D02*
X144685713Y-94477819D01*
X144923808Y-93811152D02*
X144685713Y-94477819D01*
X144685713Y-94477819D02*
X144590475Y-94715914D01*
X144590475Y-94715914D02*
X144542856Y-94763533D01*
X144542856Y-94763533D02*
X144447618Y-94811152D01*
X146066666Y-94477819D02*
X146066666Y-93811152D01*
X146066666Y-94001628D02*
X146114285Y-93906390D01*
X146114285Y-93906390D02*
X146161904Y-93858771D01*
X146161904Y-93858771D02*
X146257142Y-93811152D01*
X146257142Y-93811152D02*
X146352380Y-93811152D01*
X147114285Y-93811152D02*
X147114285Y-94620676D01*
X147114285Y-94620676D02*
X147066666Y-94715914D01*
X147066666Y-94715914D02*
X147019047Y-94763533D01*
X147019047Y-94763533D02*
X146923809Y-94811152D01*
X146923809Y-94811152D02*
X146780952Y-94811152D01*
X146780952Y-94811152D02*
X146685714Y-94763533D01*
X147114285Y-94430200D02*
X147019047Y-94477819D01*
X147019047Y-94477819D02*
X146828571Y-94477819D01*
X146828571Y-94477819D02*
X146733333Y-94430200D01*
X146733333Y-94430200D02*
X146685714Y-94382580D01*
X146685714Y-94382580D02*
X146638095Y-94287342D01*
X146638095Y-94287342D02*
X146638095Y-94001628D01*
X146638095Y-94001628D02*
X146685714Y-93906390D01*
X146685714Y-93906390D02*
X146733333Y-93858771D01*
X146733333Y-93858771D02*
X146828571Y-93811152D01*
X146828571Y-93811152D02*
X147019047Y-93811152D01*
X147019047Y-93811152D02*
X147114285Y-93858771D01*
X147733333Y-94477819D02*
X147638095Y-94430200D01*
X147638095Y-94430200D02*
X147590476Y-94334961D01*
X147590476Y-94334961D02*
X147590476Y-93477819D01*
X148495238Y-94430200D02*
X148400000Y-94477819D01*
X148400000Y-94477819D02*
X148209524Y-94477819D01*
X148209524Y-94477819D02*
X148114286Y-94430200D01*
X148114286Y-94430200D02*
X148066667Y-94334961D01*
X148066667Y-94334961D02*
X148066667Y-93954009D01*
X148066667Y-93954009D02*
X148114286Y-93858771D01*
X148114286Y-93858771D02*
X148209524Y-93811152D01*
X148209524Y-93811152D02*
X148400000Y-93811152D01*
X148400000Y-93811152D02*
X148495238Y-93858771D01*
X148495238Y-93858771D02*
X148542857Y-93954009D01*
X148542857Y-93954009D02*
X148542857Y-94049247D01*
X148542857Y-94049247D02*
X148066667Y-94144485D01*
X148971429Y-93811152D02*
X148971429Y-94477819D01*
X148971429Y-93906390D02*
X149019048Y-93858771D01*
X149019048Y-93858771D02*
X149114286Y-93811152D01*
X149114286Y-93811152D02*
X149257143Y-93811152D01*
X149257143Y-93811152D02*
X149352381Y-93858771D01*
X149352381Y-93858771D02*
X149400000Y-93954009D01*
X149400000Y-93954009D02*
X149400000Y-94477819D01*
X149876191Y-93811152D02*
X149876191Y-94477819D01*
X149876191Y-93906390D02*
X149923810Y-93858771D01*
X149923810Y-93858771D02*
X150019048Y-93811152D01*
X150019048Y-93811152D02*
X150161905Y-93811152D01*
X150161905Y-93811152D02*
X150257143Y-93858771D01*
X150257143Y-93858771D02*
X150304762Y-93954009D01*
X150304762Y-93954009D02*
X150304762Y-94477819D01*
X151495239Y-93573057D02*
X151542858Y-93525438D01*
X151542858Y-93525438D02*
X151638096Y-93477819D01*
X151638096Y-93477819D02*
X151876191Y-93477819D01*
X151876191Y-93477819D02*
X151971429Y-93525438D01*
X151971429Y-93525438D02*
X152019048Y-93573057D01*
X152019048Y-93573057D02*
X152066667Y-93668295D01*
X152066667Y-93668295D02*
X152066667Y-93763533D01*
X152066667Y-93763533D02*
X152019048Y-93906390D01*
X152019048Y-93906390D02*
X151447620Y-94477819D01*
X151447620Y-94477819D02*
X152066667Y-94477819D01*
X152685715Y-93477819D02*
X152780953Y-93477819D01*
X152780953Y-93477819D02*
X152876191Y-93525438D01*
X152876191Y-93525438D02*
X152923810Y-93573057D01*
X152923810Y-93573057D02*
X152971429Y-93668295D01*
X152971429Y-93668295D02*
X153019048Y-93858771D01*
X153019048Y-93858771D02*
X153019048Y-94096866D01*
X153019048Y-94096866D02*
X152971429Y-94287342D01*
X152971429Y-94287342D02*
X152923810Y-94382580D01*
X152923810Y-94382580D02*
X152876191Y-94430200D01*
X152876191Y-94430200D02*
X152780953Y-94477819D01*
X152780953Y-94477819D02*
X152685715Y-94477819D01*
X152685715Y-94477819D02*
X152590477Y-94430200D01*
X152590477Y-94430200D02*
X152542858Y-94382580D01*
X152542858Y-94382580D02*
X152495239Y-94287342D01*
X152495239Y-94287342D02*
X152447620Y-94096866D01*
X152447620Y-94096866D02*
X152447620Y-93858771D01*
X152447620Y-93858771D02*
X152495239Y-93668295D01*
X152495239Y-93668295D02*
X152542858Y-93573057D01*
X152542858Y-93573057D02*
X152590477Y-93525438D01*
X152590477Y-93525438D02*
X152685715Y-93477819D01*
X153400001Y-93573057D02*
X153447620Y-93525438D01*
X153447620Y-93525438D02*
X153542858Y-93477819D01*
X153542858Y-93477819D02*
X153780953Y-93477819D01*
X153780953Y-93477819D02*
X153876191Y-93525438D01*
X153876191Y-93525438D02*
X153923810Y-93573057D01*
X153923810Y-93573057D02*
X153971429Y-93668295D01*
X153971429Y-93668295D02*
X153971429Y-93763533D01*
X153971429Y-93763533D02*
X153923810Y-93906390D01*
X153923810Y-93906390D02*
X153352382Y-94477819D01*
X153352382Y-94477819D02*
X153971429Y-94477819D01*
X154304763Y-93477819D02*
X154923810Y-93477819D01*
X154923810Y-93477819D02*
X154590477Y-93858771D01*
X154590477Y-93858771D02*
X154733334Y-93858771D01*
X154733334Y-93858771D02*
X154828572Y-93906390D01*
X154828572Y-93906390D02*
X154876191Y-93954009D01*
X154876191Y-93954009D02*
X154923810Y-94049247D01*
X154923810Y-94049247D02*
X154923810Y-94287342D01*
X154923810Y-94287342D02*
X154876191Y-94382580D01*
X154876191Y-94382580D02*
X154828572Y-94430200D01*
X154828572Y-94430200D02*
X154733334Y-94477819D01*
X154733334Y-94477819D02*
X154447620Y-94477819D01*
X154447620Y-94477819D02*
X154352382Y-94430200D01*
X154352382Y-94430200D02*
X154304763Y-94382580D01*
X155352382Y-94096866D02*
X156114287Y-94096866D01*
X157114286Y-94477819D02*
X156542858Y-94477819D01*
X156828572Y-94477819D02*
X156828572Y-93477819D01*
X156828572Y-93477819D02*
X156733334Y-93620676D01*
X156733334Y-93620676D02*
X156638096Y-93715914D01*
X156638096Y-93715914D02*
X156542858Y-93763533D01*
X157733334Y-93477819D02*
X157828572Y-93477819D01*
X157828572Y-93477819D02*
X157923810Y-93525438D01*
X157923810Y-93525438D02*
X157971429Y-93573057D01*
X157971429Y-93573057D02*
X158019048Y-93668295D01*
X158019048Y-93668295D02*
X158066667Y-93858771D01*
X158066667Y-93858771D02*
X158066667Y-94096866D01*
X158066667Y-94096866D02*
X158019048Y-94287342D01*
X158019048Y-94287342D02*
X157971429Y-94382580D01*
X157971429Y-94382580D02*
X157923810Y-94430200D01*
X157923810Y-94430200D02*
X157828572Y-94477819D01*
X157828572Y-94477819D02*
X157733334Y-94477819D01*
X157733334Y-94477819D02*
X157638096Y-94430200D01*
X157638096Y-94430200D02*
X157590477Y-94382580D01*
X157590477Y-94382580D02*
X157542858Y-94287342D01*
X157542858Y-94287342D02*
X157495239Y-94096866D01*
X157495239Y-94096866D02*
X157495239Y-93858771D01*
X157495239Y-93858771D02*
X157542858Y-93668295D01*
X157542858Y-93668295D02*
X157590477Y-93573057D01*
X157590477Y-93573057D02*
X157638096Y-93525438D01*
X157638096Y-93525438D02*
X157733334Y-93477819D01*
X158495239Y-94096866D02*
X159257144Y-94096866D01*
X159923810Y-93477819D02*
X160019048Y-93477819D01*
X160019048Y-93477819D02*
X160114286Y-93525438D01*
X160114286Y-93525438D02*
X160161905Y-93573057D01*
X160161905Y-93573057D02*
X160209524Y-93668295D01*
X160209524Y-93668295D02*
X160257143Y-93858771D01*
X160257143Y-93858771D02*
X160257143Y-94096866D01*
X160257143Y-94096866D02*
X160209524Y-94287342D01*
X160209524Y-94287342D02*
X160161905Y-94382580D01*
X160161905Y-94382580D02*
X160114286Y-94430200D01*
X160114286Y-94430200D02*
X160019048Y-94477819D01*
X160019048Y-94477819D02*
X159923810Y-94477819D01*
X159923810Y-94477819D02*
X159828572Y-94430200D01*
X159828572Y-94430200D02*
X159780953Y-94382580D01*
X159780953Y-94382580D02*
X159733334Y-94287342D01*
X159733334Y-94287342D02*
X159685715Y-94096866D01*
X159685715Y-94096866D02*
X159685715Y-93858771D01*
X159685715Y-93858771D02*
X159733334Y-93668295D01*
X159733334Y-93668295D02*
X159780953Y-93573057D01*
X159780953Y-93573057D02*
X159828572Y-93525438D01*
X159828572Y-93525438D02*
X159923810Y-93477819D01*
X160733334Y-94477819D02*
X160923810Y-94477819D01*
X160923810Y-94477819D02*
X161019048Y-94430200D01*
X161019048Y-94430200D02*
X161066667Y-94382580D01*
X161066667Y-94382580D02*
X161161905Y-94239723D01*
X161161905Y-94239723D02*
X161209524Y-94049247D01*
X161209524Y-94049247D02*
X161209524Y-93668295D01*
X161209524Y-93668295D02*
X161161905Y-93573057D01*
X161161905Y-93573057D02*
X161114286Y-93525438D01*
X161114286Y-93525438D02*
X161019048Y-93477819D01*
X161019048Y-93477819D02*
X160828572Y-93477819D01*
X160828572Y-93477819D02*
X160733334Y-93525438D01*
X160733334Y-93525438D02*
X160685715Y-93573057D01*
X160685715Y-93573057D02*
X160638096Y-93668295D01*
X160638096Y-93668295D02*
X160638096Y-93906390D01*
X160638096Y-93906390D02*
X160685715Y-94001628D01*
X160685715Y-94001628D02*
X160733334Y-94049247D01*
X160733334Y-94049247D02*
X160828572Y-94096866D01*
X160828572Y-94096866D02*
X161019048Y-94096866D01*
X161019048Y-94096866D02*
X161114286Y-94049247D01*
X161114286Y-94049247D02*
X161161905Y-94001628D01*
X161161905Y-94001628D02*
X161209524Y-93906390D01*
X67900779Y-96389819D02*
X67900779Y-95389819D01*
X67900779Y-95389819D02*
X68281731Y-95389819D01*
X68281731Y-95389819D02*
X68376969Y-95437438D01*
X68376969Y-95437438D02*
X68424588Y-95485057D01*
X68424588Y-95485057D02*
X68472207Y-95580295D01*
X68472207Y-95580295D02*
X68472207Y-95723152D01*
X68472207Y-95723152D02*
X68424588Y-95818390D01*
X68424588Y-95818390D02*
X68376969Y-95866009D01*
X68376969Y-95866009D02*
X68281731Y-95913628D01*
X68281731Y-95913628D02*
X67900779Y-95913628D01*
X69091255Y-95389819D02*
X69281731Y-95389819D01*
X69281731Y-95389819D02*
X69376969Y-95437438D01*
X69376969Y-95437438D02*
X69472207Y-95532676D01*
X69472207Y-95532676D02*
X69519826Y-95723152D01*
X69519826Y-95723152D02*
X69519826Y-96056485D01*
X69519826Y-96056485D02*
X69472207Y-96246961D01*
X69472207Y-96246961D02*
X69376969Y-96342200D01*
X69376969Y-96342200D02*
X69281731Y-96389819D01*
X69281731Y-96389819D02*
X69091255Y-96389819D01*
X69091255Y-96389819D02*
X68996017Y-96342200D01*
X68996017Y-96342200D02*
X68900779Y-96246961D01*
X68900779Y-96246961D02*
X68853160Y-96056485D01*
X68853160Y-96056485D02*
X68853160Y-95723152D01*
X68853160Y-95723152D02*
X68900779Y-95532676D01*
X68900779Y-95532676D02*
X68996017Y-95437438D01*
X68996017Y-95437438D02*
X69091255Y-95389819D01*
X70376969Y-95723152D02*
X70376969Y-96389819D01*
X70138874Y-95342200D02*
X69900779Y-96056485D01*
X69900779Y-96056485D02*
X70519826Y-96056485D01*
X71376969Y-95389819D02*
X70900779Y-95389819D01*
X70900779Y-95389819D02*
X70853160Y-95866009D01*
X70853160Y-95866009D02*
X70900779Y-95818390D01*
X70900779Y-95818390D02*
X70996017Y-95770771D01*
X70996017Y-95770771D02*
X71234112Y-95770771D01*
X71234112Y-95770771D02*
X71329350Y-95818390D01*
X71329350Y-95818390D02*
X71376969Y-95866009D01*
X71376969Y-95866009D02*
X71424588Y-95961247D01*
X71424588Y-95961247D02*
X71424588Y-96199342D01*
X71424588Y-96199342D02*
X71376969Y-96294580D01*
X71376969Y-96294580D02*
X71329350Y-96342200D01*
X71329350Y-96342200D02*
X71234112Y-96389819D01*
X71234112Y-96389819D02*
X70996017Y-96389819D01*
X70996017Y-96389819D02*
X70900779Y-96342200D01*
X70900779Y-96342200D02*
X70853160Y-96294580D01*
X68334095Y-84036819D02*
X68334095Y-84846342D01*
X68334095Y-84846342D02*
X68381714Y-84941580D01*
X68381714Y-84941580D02*
X68429333Y-84989200D01*
X68429333Y-84989200D02*
X68524571Y-85036819D01*
X68524571Y-85036819D02*
X68715047Y-85036819D01*
X68715047Y-85036819D02*
X68810285Y-84989200D01*
X68810285Y-84989200D02*
X68857904Y-84941580D01*
X68857904Y-84941580D02*
X68905523Y-84846342D01*
X68905523Y-84846342D02*
X68905523Y-84036819D01*
X69334095Y-84989200D02*
X69476952Y-85036819D01*
X69476952Y-85036819D02*
X69715047Y-85036819D01*
X69715047Y-85036819D02*
X69810285Y-84989200D01*
X69810285Y-84989200D02*
X69857904Y-84941580D01*
X69857904Y-84941580D02*
X69905523Y-84846342D01*
X69905523Y-84846342D02*
X69905523Y-84751104D01*
X69905523Y-84751104D02*
X69857904Y-84655866D01*
X69857904Y-84655866D02*
X69810285Y-84608247D01*
X69810285Y-84608247D02*
X69715047Y-84560628D01*
X69715047Y-84560628D02*
X69524571Y-84513009D01*
X69524571Y-84513009D02*
X69429333Y-84465390D01*
X69429333Y-84465390D02*
X69381714Y-84417771D01*
X69381714Y-84417771D02*
X69334095Y-84322533D01*
X69334095Y-84322533D02*
X69334095Y-84227295D01*
X69334095Y-84227295D02*
X69381714Y-84132057D01*
X69381714Y-84132057D02*
X69429333Y-84084438D01*
X69429333Y-84084438D02*
X69524571Y-84036819D01*
X69524571Y-84036819D02*
X69762666Y-84036819D01*
X69762666Y-84036819D02*
X69905523Y-84084438D01*
X70667428Y-84513009D02*
X70810285Y-84560628D01*
X70810285Y-84560628D02*
X70857904Y-84608247D01*
X70857904Y-84608247D02*
X70905523Y-84703485D01*
X70905523Y-84703485D02*
X70905523Y-84846342D01*
X70905523Y-84846342D02*
X70857904Y-84941580D01*
X70857904Y-84941580D02*
X70810285Y-84989200D01*
X70810285Y-84989200D02*
X70715047Y-85036819D01*
X70715047Y-85036819D02*
X70334095Y-85036819D01*
X70334095Y-85036819D02*
X70334095Y-84036819D01*
X70334095Y-84036819D02*
X70667428Y-84036819D01*
X70667428Y-84036819D02*
X70762666Y-84084438D01*
X70762666Y-84084438D02*
X70810285Y-84132057D01*
X70810285Y-84132057D02*
X70857904Y-84227295D01*
X70857904Y-84227295D02*
X70857904Y-84322533D01*
X70857904Y-84322533D02*
X70810285Y-84417771D01*
X70810285Y-84417771D02*
X70762666Y-84465390D01*
X70762666Y-84465390D02*
X70667428Y-84513009D01*
X70667428Y-84513009D02*
X70334095Y-84513009D01*
X173402666Y-137122819D02*
X173402666Y-137837104D01*
X173402666Y-137837104D02*
X173355047Y-137979961D01*
X173355047Y-137979961D02*
X173259809Y-138075200D01*
X173259809Y-138075200D02*
X173116952Y-138122819D01*
X173116952Y-138122819D02*
X173021714Y-138122819D01*
X173783619Y-137122819D02*
X174450285Y-137122819D01*
X174450285Y-137122819D02*
X174021714Y-138122819D01*
X166624095Y-113500819D02*
X166624095Y-114310342D01*
X166624095Y-114310342D02*
X166671714Y-114405580D01*
X166671714Y-114405580D02*
X166719333Y-114453200D01*
X166719333Y-114453200D02*
X166814571Y-114500819D01*
X166814571Y-114500819D02*
X167005047Y-114500819D01*
X167005047Y-114500819D02*
X167100285Y-114453200D01*
X167100285Y-114453200D02*
X167147904Y-114405580D01*
X167147904Y-114405580D02*
X167195523Y-114310342D01*
X167195523Y-114310342D02*
X167195523Y-113500819D01*
X168195523Y-114500819D02*
X167624095Y-114500819D01*
X167909809Y-114500819D02*
X167909809Y-113500819D01*
X167909809Y-113500819D02*
X167814571Y-113643676D01*
X167814571Y-113643676D02*
X167719333Y-113738914D01*
X167719333Y-113738914D02*
X167624095Y-113786533D01*
X104648095Y-71844819D02*
X104648095Y-72654342D01*
X104648095Y-72654342D02*
X104695714Y-72749580D01*
X104695714Y-72749580D02*
X104743333Y-72797200D01*
X104743333Y-72797200D02*
X104838571Y-72844819D01*
X104838571Y-72844819D02*
X105029047Y-72844819D01*
X105029047Y-72844819D02*
X105124285Y-72797200D01*
X105124285Y-72797200D02*
X105171904Y-72749580D01*
X105171904Y-72749580D02*
X105219523Y-72654342D01*
X105219523Y-72654342D02*
X105219523Y-71844819D01*
X105648095Y-71940057D02*
X105695714Y-71892438D01*
X105695714Y-71892438D02*
X105790952Y-71844819D01*
X105790952Y-71844819D02*
X106029047Y-71844819D01*
X106029047Y-71844819D02*
X106124285Y-71892438D01*
X106124285Y-71892438D02*
X106171904Y-71940057D01*
X106171904Y-71940057D02*
X106219523Y-72035295D01*
X106219523Y-72035295D02*
X106219523Y-72130533D01*
X106219523Y-72130533D02*
X106171904Y-72273390D01*
X106171904Y-72273390D02*
X105600476Y-72844819D01*
X105600476Y-72844819D02*
X106219523Y-72844819D01*
X83634676Y-84494019D02*
X83634676Y-85303542D01*
X83634676Y-85303542D02*
X83682295Y-85398780D01*
X83682295Y-85398780D02*
X83729914Y-85446400D01*
X83729914Y-85446400D02*
X83825152Y-85494019D01*
X83825152Y-85494019D02*
X84015628Y-85494019D01*
X84015628Y-85494019D02*
X84110866Y-85446400D01*
X84110866Y-85446400D02*
X84158485Y-85398780D01*
X84158485Y-85398780D02*
X84206104Y-85303542D01*
X84206104Y-85303542D02*
X84206104Y-84494019D01*
X84634676Y-85446400D02*
X84777533Y-85494019D01*
X84777533Y-85494019D02*
X85015628Y-85494019D01*
X85015628Y-85494019D02*
X85110866Y-85446400D01*
X85110866Y-85446400D02*
X85158485Y-85398780D01*
X85158485Y-85398780D02*
X85206104Y-85303542D01*
X85206104Y-85303542D02*
X85206104Y-85208304D01*
X85206104Y-85208304D02*
X85158485Y-85113066D01*
X85158485Y-85113066D02*
X85110866Y-85065447D01*
X85110866Y-85065447D02*
X85015628Y-85017828D01*
X85015628Y-85017828D02*
X84825152Y-84970209D01*
X84825152Y-84970209D02*
X84729914Y-84922590D01*
X84729914Y-84922590D02*
X84682295Y-84874971D01*
X84682295Y-84874971D02*
X84634676Y-84779733D01*
X84634676Y-84779733D02*
X84634676Y-84684495D01*
X84634676Y-84684495D02*
X84682295Y-84589257D01*
X84682295Y-84589257D02*
X84729914Y-84541638D01*
X84729914Y-84541638D02*
X84825152Y-84494019D01*
X84825152Y-84494019D02*
X85063247Y-84494019D01*
X85063247Y-84494019D02*
X85206104Y-84541638D01*
X85968009Y-84970209D02*
X86110866Y-85017828D01*
X86110866Y-85017828D02*
X86158485Y-85065447D01*
X86158485Y-85065447D02*
X86206104Y-85160685D01*
X86206104Y-85160685D02*
X86206104Y-85303542D01*
X86206104Y-85303542D02*
X86158485Y-85398780D01*
X86158485Y-85398780D02*
X86110866Y-85446400D01*
X86110866Y-85446400D02*
X86015628Y-85494019D01*
X86015628Y-85494019D02*
X85634676Y-85494019D01*
X85634676Y-85494019D02*
X85634676Y-84494019D01*
X85634676Y-84494019D02*
X85968009Y-84494019D01*
X85968009Y-84494019D02*
X86063247Y-84541638D01*
X86063247Y-84541638D02*
X86110866Y-84589257D01*
X86110866Y-84589257D02*
X86158485Y-84684495D01*
X86158485Y-84684495D02*
X86158485Y-84779733D01*
X86158485Y-84779733D02*
X86110866Y-84874971D01*
X86110866Y-84874971D02*
X86063247Y-84922590D01*
X86063247Y-84922590D02*
X85968009Y-84970209D01*
X85968009Y-84970209D02*
X85634676Y-84970209D01*
X87396581Y-85494019D02*
X87396581Y-84494019D01*
X87396581Y-84970209D02*
X87968009Y-84970209D01*
X87968009Y-85494019D02*
X87968009Y-84494019D01*
X88587057Y-85494019D02*
X88491819Y-85446400D01*
X88491819Y-85446400D02*
X88444200Y-85398780D01*
X88444200Y-85398780D02*
X88396581Y-85303542D01*
X88396581Y-85303542D02*
X88396581Y-85017828D01*
X88396581Y-85017828D02*
X88444200Y-84922590D01*
X88444200Y-84922590D02*
X88491819Y-84874971D01*
X88491819Y-84874971D02*
X88587057Y-84827352D01*
X88587057Y-84827352D02*
X88729914Y-84827352D01*
X88729914Y-84827352D02*
X88825152Y-84874971D01*
X88825152Y-84874971D02*
X88872771Y-84922590D01*
X88872771Y-84922590D02*
X88920390Y-85017828D01*
X88920390Y-85017828D02*
X88920390Y-85303542D01*
X88920390Y-85303542D02*
X88872771Y-85398780D01*
X88872771Y-85398780D02*
X88825152Y-85446400D01*
X88825152Y-85446400D02*
X88729914Y-85494019D01*
X88729914Y-85494019D02*
X88587057Y-85494019D01*
X89301343Y-85446400D02*
X89396581Y-85494019D01*
X89396581Y-85494019D02*
X89587057Y-85494019D01*
X89587057Y-85494019D02*
X89682295Y-85446400D01*
X89682295Y-85446400D02*
X89729914Y-85351161D01*
X89729914Y-85351161D02*
X89729914Y-85303542D01*
X89729914Y-85303542D02*
X89682295Y-85208304D01*
X89682295Y-85208304D02*
X89587057Y-85160685D01*
X89587057Y-85160685D02*
X89444200Y-85160685D01*
X89444200Y-85160685D02*
X89348962Y-85113066D01*
X89348962Y-85113066D02*
X89301343Y-85017828D01*
X89301343Y-85017828D02*
X89301343Y-84970209D01*
X89301343Y-84970209D02*
X89348962Y-84874971D01*
X89348962Y-84874971D02*
X89444200Y-84827352D01*
X89444200Y-84827352D02*
X89587057Y-84827352D01*
X89587057Y-84827352D02*
X89682295Y-84874971D01*
X90015629Y-84827352D02*
X90396581Y-84827352D01*
X90158486Y-84494019D02*
X90158486Y-85351161D01*
X90158486Y-85351161D02*
X90206105Y-85446400D01*
X90206105Y-85446400D02*
X90301343Y-85494019D01*
X90301343Y-85494019D02*
X90396581Y-85494019D01*
X78194819Y-83811904D02*
X79004342Y-83811904D01*
X79004342Y-83811904D02*
X79099580Y-83764285D01*
X79099580Y-83764285D02*
X79147200Y-83716666D01*
X79147200Y-83716666D02*
X79194819Y-83621428D01*
X79194819Y-83621428D02*
X79194819Y-83430952D01*
X79194819Y-83430952D02*
X79147200Y-83335714D01*
X79147200Y-83335714D02*
X79099580Y-83288095D01*
X79099580Y-83288095D02*
X79004342Y-83240476D01*
X79004342Y-83240476D02*
X78194819Y-83240476D01*
X79147200Y-82811904D02*
X79194819Y-82669047D01*
X79194819Y-82669047D02*
X79194819Y-82430952D01*
X79194819Y-82430952D02*
X79147200Y-82335714D01*
X79147200Y-82335714D02*
X79099580Y-82288095D01*
X79099580Y-82288095D02*
X79004342Y-82240476D01*
X79004342Y-82240476D02*
X78909104Y-82240476D01*
X78909104Y-82240476D02*
X78813866Y-82288095D01*
X78813866Y-82288095D02*
X78766247Y-82335714D01*
X78766247Y-82335714D02*
X78718628Y-82430952D01*
X78718628Y-82430952D02*
X78671009Y-82621428D01*
X78671009Y-82621428D02*
X78623390Y-82716666D01*
X78623390Y-82716666D02*
X78575771Y-82764285D01*
X78575771Y-82764285D02*
X78480533Y-82811904D01*
X78480533Y-82811904D02*
X78385295Y-82811904D01*
X78385295Y-82811904D02*
X78290057Y-82764285D01*
X78290057Y-82764285D02*
X78242438Y-82716666D01*
X78242438Y-82716666D02*
X78194819Y-82621428D01*
X78194819Y-82621428D02*
X78194819Y-82383333D01*
X78194819Y-82383333D02*
X78242438Y-82240476D01*
X78671009Y-81478571D02*
X78718628Y-81335714D01*
X78718628Y-81335714D02*
X78766247Y-81288095D01*
X78766247Y-81288095D02*
X78861485Y-81240476D01*
X78861485Y-81240476D02*
X79004342Y-81240476D01*
X79004342Y-81240476D02*
X79099580Y-81288095D01*
X79099580Y-81288095D02*
X79147200Y-81335714D01*
X79147200Y-81335714D02*
X79194819Y-81430952D01*
X79194819Y-81430952D02*
X79194819Y-81811904D01*
X79194819Y-81811904D02*
X78194819Y-81811904D01*
X78194819Y-81811904D02*
X78194819Y-81478571D01*
X78194819Y-81478571D02*
X78242438Y-81383333D01*
X78242438Y-81383333D02*
X78290057Y-81335714D01*
X78290057Y-81335714D02*
X78385295Y-81288095D01*
X78385295Y-81288095D02*
X78480533Y-81288095D01*
X78480533Y-81288095D02*
X78575771Y-81335714D01*
X78575771Y-81335714D02*
X78623390Y-81383333D01*
X78623390Y-81383333D02*
X78671009Y-81478571D01*
X78671009Y-81478571D02*
X78671009Y-81811904D01*
X126420952Y-83004819D02*
X126420952Y-82004819D01*
X126420952Y-82004819D02*
X126754285Y-82719104D01*
X126754285Y-82719104D02*
X127087618Y-82004819D01*
X127087618Y-82004819D02*
X127087618Y-83004819D01*
X127563809Y-83004819D02*
X127563809Y-82338152D01*
X127563809Y-82004819D02*
X127516190Y-82052438D01*
X127516190Y-82052438D02*
X127563809Y-82100057D01*
X127563809Y-82100057D02*
X127611428Y-82052438D01*
X127611428Y-82052438D02*
X127563809Y-82004819D01*
X127563809Y-82004819D02*
X127563809Y-82100057D01*
X128468570Y-82957200D02*
X128373332Y-83004819D01*
X128373332Y-83004819D02*
X128182856Y-83004819D01*
X128182856Y-83004819D02*
X128087618Y-82957200D01*
X128087618Y-82957200D02*
X128039999Y-82909580D01*
X128039999Y-82909580D02*
X127992380Y-82814342D01*
X127992380Y-82814342D02*
X127992380Y-82528628D01*
X127992380Y-82528628D02*
X128039999Y-82433390D01*
X128039999Y-82433390D02*
X128087618Y-82385771D01*
X128087618Y-82385771D02*
X128182856Y-82338152D01*
X128182856Y-82338152D02*
X128373332Y-82338152D01*
X128373332Y-82338152D02*
X128468570Y-82385771D01*
X128897142Y-83004819D02*
X128897142Y-82338152D01*
X128897142Y-82528628D02*
X128944761Y-82433390D01*
X128944761Y-82433390D02*
X128992380Y-82385771D01*
X128992380Y-82385771D02*
X129087618Y-82338152D01*
X129087618Y-82338152D02*
X129182856Y-82338152D01*
X129659047Y-83004819D02*
X129563809Y-82957200D01*
X129563809Y-82957200D02*
X129516190Y-82909580D01*
X129516190Y-82909580D02*
X129468571Y-82814342D01*
X129468571Y-82814342D02*
X129468571Y-82528628D01*
X129468571Y-82528628D02*
X129516190Y-82433390D01*
X129516190Y-82433390D02*
X129563809Y-82385771D01*
X129563809Y-82385771D02*
X129659047Y-82338152D01*
X129659047Y-82338152D02*
X129801904Y-82338152D01*
X129801904Y-82338152D02*
X129897142Y-82385771D01*
X129897142Y-82385771D02*
X129944761Y-82433390D01*
X129944761Y-82433390D02*
X129992380Y-82528628D01*
X129992380Y-82528628D02*
X129992380Y-82814342D01*
X129992380Y-82814342D02*
X129944761Y-82909580D01*
X129944761Y-82909580D02*
X129897142Y-82957200D01*
X129897142Y-82957200D02*
X129801904Y-83004819D01*
X129801904Y-83004819D02*
X129659047Y-83004819D01*
X131135238Y-82957200D02*
X131278095Y-83004819D01*
X131278095Y-83004819D02*
X131516190Y-83004819D01*
X131516190Y-83004819D02*
X131611428Y-82957200D01*
X131611428Y-82957200D02*
X131659047Y-82909580D01*
X131659047Y-82909580D02*
X131706666Y-82814342D01*
X131706666Y-82814342D02*
X131706666Y-82719104D01*
X131706666Y-82719104D02*
X131659047Y-82623866D01*
X131659047Y-82623866D02*
X131611428Y-82576247D01*
X131611428Y-82576247D02*
X131516190Y-82528628D01*
X131516190Y-82528628D02*
X131325714Y-82481009D01*
X131325714Y-82481009D02*
X131230476Y-82433390D01*
X131230476Y-82433390D02*
X131182857Y-82385771D01*
X131182857Y-82385771D02*
X131135238Y-82290533D01*
X131135238Y-82290533D02*
X131135238Y-82195295D01*
X131135238Y-82195295D02*
X131182857Y-82100057D01*
X131182857Y-82100057D02*
X131230476Y-82052438D01*
X131230476Y-82052438D02*
X131325714Y-82004819D01*
X131325714Y-82004819D02*
X131563809Y-82004819D01*
X131563809Y-82004819D02*
X131706666Y-82052438D01*
X132135238Y-83004819D02*
X132135238Y-82004819D01*
X132135238Y-82004819D02*
X132373333Y-82004819D01*
X132373333Y-82004819D02*
X132516190Y-82052438D01*
X132516190Y-82052438D02*
X132611428Y-82147676D01*
X132611428Y-82147676D02*
X132659047Y-82242914D01*
X132659047Y-82242914D02*
X132706666Y-82433390D01*
X132706666Y-82433390D02*
X132706666Y-82576247D01*
X132706666Y-82576247D02*
X132659047Y-82766723D01*
X132659047Y-82766723D02*
X132611428Y-82861961D01*
X132611428Y-82861961D02*
X132516190Y-82957200D01*
X132516190Y-82957200D02*
X132373333Y-83004819D01*
X132373333Y-83004819D02*
X132135238Y-83004819D01*
X93276009Y-82130543D02*
X93276009Y-81797210D01*
X93799819Y-81654353D02*
X93799819Y-82130543D01*
X93799819Y-82130543D02*
X92799819Y-82130543D01*
X92799819Y-82130543D02*
X92799819Y-81654353D01*
X93133152Y-81368638D02*
X93133152Y-80987686D01*
X92799819Y-81225781D02*
X93656961Y-81225781D01*
X93656961Y-81225781D02*
X93752200Y-81178162D01*
X93752200Y-81178162D02*
X93799819Y-81082924D01*
X93799819Y-81082924D02*
X93799819Y-80987686D01*
X93799819Y-80654352D02*
X92799819Y-80654352D01*
X93799819Y-80225781D02*
X93276009Y-80225781D01*
X93276009Y-80225781D02*
X93180771Y-80273400D01*
X93180771Y-80273400D02*
X93133152Y-80368638D01*
X93133152Y-80368638D02*
X93133152Y-80511495D01*
X93133152Y-80511495D02*
X93180771Y-80606733D01*
X93180771Y-80606733D02*
X93228390Y-80654352D01*
X93752200Y-79368638D02*
X93799819Y-79463876D01*
X93799819Y-79463876D02*
X93799819Y-79654352D01*
X93799819Y-79654352D02*
X93752200Y-79749590D01*
X93752200Y-79749590D02*
X93656961Y-79797209D01*
X93656961Y-79797209D02*
X93276009Y-79797209D01*
X93276009Y-79797209D02*
X93180771Y-79749590D01*
X93180771Y-79749590D02*
X93133152Y-79654352D01*
X93133152Y-79654352D02*
X93133152Y-79463876D01*
X93133152Y-79463876D02*
X93180771Y-79368638D01*
X93180771Y-79368638D02*
X93276009Y-79321019D01*
X93276009Y-79321019D02*
X93371247Y-79321019D01*
X93371247Y-79321019D02*
X93466485Y-79797209D01*
X93799819Y-78892447D02*
X93133152Y-78892447D01*
X93323628Y-78892447D02*
X93228390Y-78844828D01*
X93228390Y-78844828D02*
X93180771Y-78797209D01*
X93180771Y-78797209D02*
X93133152Y-78701971D01*
X93133152Y-78701971D02*
X93133152Y-78606733D01*
X93133152Y-78273399D02*
X93799819Y-78273399D01*
X93228390Y-78273399D02*
X93180771Y-78225780D01*
X93180771Y-78225780D02*
X93133152Y-78130542D01*
X93133152Y-78130542D02*
X93133152Y-77987685D01*
X93133152Y-77987685D02*
X93180771Y-77892447D01*
X93180771Y-77892447D02*
X93276009Y-77844828D01*
X93276009Y-77844828D02*
X93799819Y-77844828D01*
X93752200Y-76987685D02*
X93799819Y-77082923D01*
X93799819Y-77082923D02*
X93799819Y-77273399D01*
X93799819Y-77273399D02*
X93752200Y-77368637D01*
X93752200Y-77368637D02*
X93656961Y-77416256D01*
X93656961Y-77416256D02*
X93276009Y-77416256D01*
X93276009Y-77416256D02*
X93180771Y-77368637D01*
X93180771Y-77368637D02*
X93133152Y-77273399D01*
X93133152Y-77273399D02*
X93133152Y-77082923D01*
X93133152Y-77082923D02*
X93180771Y-76987685D01*
X93180771Y-76987685D02*
X93276009Y-76940066D01*
X93276009Y-76940066D02*
X93371247Y-76940066D01*
X93371247Y-76940066D02*
X93466485Y-77416256D01*
X93133152Y-76654351D02*
X93133152Y-76273399D01*
X92799819Y-76511494D02*
X93656961Y-76511494D01*
X93656961Y-76511494D02*
X93752200Y-76463875D01*
X93752200Y-76463875D02*
X93799819Y-76368637D01*
X93799819Y-76368637D02*
X93799819Y-76273399D01*
X178501009Y-119341333D02*
X178501009Y-119674666D01*
X179024819Y-119674666D02*
X178024819Y-119674666D01*
X178024819Y-119674666D02*
X178024819Y-119198476D01*
X179024819Y-118293714D02*
X179024819Y-118865142D01*
X179024819Y-118579428D02*
X178024819Y-118579428D01*
X178024819Y-118579428D02*
X178167676Y-118674666D01*
X178167676Y-118674666D02*
X178262914Y-118769904D01*
X178262914Y-118769904D02*
X178310533Y-118865142D01*
X79789580Y-71127857D02*
X79837200Y-71175476D01*
X79837200Y-71175476D02*
X79884819Y-71318333D01*
X79884819Y-71318333D02*
X79884819Y-71413571D01*
X79884819Y-71413571D02*
X79837200Y-71556428D01*
X79837200Y-71556428D02*
X79741961Y-71651666D01*
X79741961Y-71651666D02*
X79646723Y-71699285D01*
X79646723Y-71699285D02*
X79456247Y-71746904D01*
X79456247Y-71746904D02*
X79313390Y-71746904D01*
X79313390Y-71746904D02*
X79122914Y-71699285D01*
X79122914Y-71699285D02*
X79027676Y-71651666D01*
X79027676Y-71651666D02*
X78932438Y-71556428D01*
X78932438Y-71556428D02*
X78884819Y-71413571D01*
X78884819Y-71413571D02*
X78884819Y-71318333D01*
X78884819Y-71318333D02*
X78932438Y-71175476D01*
X78932438Y-71175476D02*
X78980057Y-71127857D01*
X79884819Y-70175476D02*
X79884819Y-70746904D01*
X79884819Y-70461190D02*
X78884819Y-70461190D01*
X78884819Y-70461190D02*
X79027676Y-70556428D01*
X79027676Y-70556428D02*
X79122914Y-70651666D01*
X79122914Y-70651666D02*
X79170533Y-70746904D01*
X78884819Y-69318333D02*
X78884819Y-69508809D01*
X78884819Y-69508809D02*
X78932438Y-69604047D01*
X78932438Y-69604047D02*
X78980057Y-69651666D01*
X78980057Y-69651666D02*
X79122914Y-69746904D01*
X79122914Y-69746904D02*
X79313390Y-69794523D01*
X79313390Y-69794523D02*
X79694342Y-69794523D01*
X79694342Y-69794523D02*
X79789580Y-69746904D01*
X79789580Y-69746904D02*
X79837200Y-69699285D01*
X79837200Y-69699285D02*
X79884819Y-69604047D01*
X79884819Y-69604047D02*
X79884819Y-69413571D01*
X79884819Y-69413571D02*
X79837200Y-69318333D01*
X79837200Y-69318333D02*
X79789580Y-69270714D01*
X79789580Y-69270714D02*
X79694342Y-69223095D01*
X79694342Y-69223095D02*
X79456247Y-69223095D01*
X79456247Y-69223095D02*
X79361009Y-69270714D01*
X79361009Y-69270714D02*
X79313390Y-69318333D01*
X79313390Y-69318333D02*
X79265771Y-69413571D01*
X79265771Y-69413571D02*
X79265771Y-69604047D01*
X79265771Y-69604047D02*
X79313390Y-69699285D01*
X79313390Y-69699285D02*
X79361009Y-69746904D01*
X79361009Y-69746904D02*
X79456247Y-69794523D01*
X79566819Y-132413333D02*
X80281104Y-132413333D01*
X80281104Y-132413333D02*
X80423961Y-132460952D01*
X80423961Y-132460952D02*
X80519200Y-132556190D01*
X80519200Y-132556190D02*
X80566819Y-132699047D01*
X80566819Y-132699047D02*
X80566819Y-132794285D01*
X79566819Y-132032380D02*
X79566819Y-131413333D01*
X79566819Y-131413333D02*
X79947771Y-131746666D01*
X79947771Y-131746666D02*
X79947771Y-131603809D01*
X79947771Y-131603809D02*
X79995390Y-131508571D01*
X79995390Y-131508571D02*
X80043009Y-131460952D01*
X80043009Y-131460952D02*
X80138247Y-131413333D01*
X80138247Y-131413333D02*
X80376342Y-131413333D01*
X80376342Y-131413333D02*
X80471580Y-131460952D01*
X80471580Y-131460952D02*
X80519200Y-131508571D01*
X80519200Y-131508571D02*
X80566819Y-131603809D01*
X80566819Y-131603809D02*
X80566819Y-131889523D01*
X80566819Y-131889523D02*
X80519200Y-131984761D01*
X80519200Y-131984761D02*
X80471580Y-132032380D01*
X66752200Y-91213332D02*
X66799819Y-91070475D01*
X66799819Y-91070475D02*
X66799819Y-90832380D01*
X66799819Y-90832380D02*
X66752200Y-90737142D01*
X66752200Y-90737142D02*
X66704580Y-90689523D01*
X66704580Y-90689523D02*
X66609342Y-90641904D01*
X66609342Y-90641904D02*
X66514104Y-90641904D01*
X66514104Y-90641904D02*
X66418866Y-90689523D01*
X66418866Y-90689523D02*
X66371247Y-90737142D01*
X66371247Y-90737142D02*
X66323628Y-90832380D01*
X66323628Y-90832380D02*
X66276009Y-91022856D01*
X66276009Y-91022856D02*
X66228390Y-91118094D01*
X66228390Y-91118094D02*
X66180771Y-91165713D01*
X66180771Y-91165713D02*
X66085533Y-91213332D01*
X66085533Y-91213332D02*
X65990295Y-91213332D01*
X65990295Y-91213332D02*
X65895057Y-91165713D01*
X65895057Y-91165713D02*
X65847438Y-91118094D01*
X65847438Y-91118094D02*
X65799819Y-91022856D01*
X65799819Y-91022856D02*
X65799819Y-90784761D01*
X65799819Y-90784761D02*
X65847438Y-90641904D01*
X65799819Y-90308570D02*
X66799819Y-90070475D01*
X66799819Y-90070475D02*
X66085533Y-89879999D01*
X66085533Y-89879999D02*
X66799819Y-89689523D01*
X66799819Y-89689523D02*
X65799819Y-89451428D01*
X65799819Y-89165713D02*
X65799819Y-88546666D01*
X65799819Y-88546666D02*
X66180771Y-88879999D01*
X66180771Y-88879999D02*
X66180771Y-88737142D01*
X66180771Y-88737142D02*
X66228390Y-88641904D01*
X66228390Y-88641904D02*
X66276009Y-88594285D01*
X66276009Y-88594285D02*
X66371247Y-88546666D01*
X66371247Y-88546666D02*
X66609342Y-88546666D01*
X66609342Y-88546666D02*
X66704580Y-88594285D01*
X66704580Y-88594285D02*
X66752200Y-88641904D01*
X66752200Y-88641904D02*
X66799819Y-88737142D01*
X66799819Y-88737142D02*
X66799819Y-89022856D01*
X66799819Y-89022856D02*
X66752200Y-89118094D01*
X66752200Y-89118094D02*
X66704580Y-89165713D01*
X173841580Y-105036857D02*
X173889200Y-105084476D01*
X173889200Y-105084476D02*
X173936819Y-105227333D01*
X173936819Y-105227333D02*
X173936819Y-105322571D01*
X173936819Y-105322571D02*
X173889200Y-105465428D01*
X173889200Y-105465428D02*
X173793961Y-105560666D01*
X173793961Y-105560666D02*
X173698723Y-105608285D01*
X173698723Y-105608285D02*
X173508247Y-105655904D01*
X173508247Y-105655904D02*
X173365390Y-105655904D01*
X173365390Y-105655904D02*
X173174914Y-105608285D01*
X173174914Y-105608285D02*
X173079676Y-105560666D01*
X173079676Y-105560666D02*
X172984438Y-105465428D01*
X172984438Y-105465428D02*
X172936819Y-105322571D01*
X172936819Y-105322571D02*
X172936819Y-105227333D01*
X172936819Y-105227333D02*
X172984438Y-105084476D01*
X172984438Y-105084476D02*
X173032057Y-105036857D01*
X173936819Y-104084476D02*
X173936819Y-104655904D01*
X173936819Y-104370190D02*
X172936819Y-104370190D01*
X172936819Y-104370190D02*
X173079676Y-104465428D01*
X173079676Y-104465428D02*
X173174914Y-104560666D01*
X173174914Y-104560666D02*
X173222533Y-104655904D01*
X172936819Y-103751142D02*
X172936819Y-103084476D01*
X172936819Y-103084476D02*
X173936819Y-103513047D01*
X209446905Y-110784819D02*
X209446905Y-109784819D01*
X209446905Y-109784819D02*
X209685000Y-109784819D01*
X209685000Y-109784819D02*
X209827857Y-109832438D01*
X209827857Y-109832438D02*
X209923095Y-109927676D01*
X209923095Y-109927676D02*
X209970714Y-110022914D01*
X209970714Y-110022914D02*
X210018333Y-110213390D01*
X210018333Y-110213390D02*
X210018333Y-110356247D01*
X210018333Y-110356247D02*
X209970714Y-110546723D01*
X209970714Y-110546723D02*
X209923095Y-110641961D01*
X209923095Y-110641961D02*
X209827857Y-110737200D01*
X209827857Y-110737200D02*
X209685000Y-110784819D01*
X209685000Y-110784819D02*
X209446905Y-110784819D01*
X210399286Y-109880057D02*
X210446905Y-109832438D01*
X210446905Y-109832438D02*
X210542143Y-109784819D01*
X210542143Y-109784819D02*
X210780238Y-109784819D01*
X210780238Y-109784819D02*
X210875476Y-109832438D01*
X210875476Y-109832438D02*
X210923095Y-109880057D01*
X210923095Y-109880057D02*
X210970714Y-109975295D01*
X210970714Y-109975295D02*
X210970714Y-110070533D01*
X210970714Y-110070533D02*
X210923095Y-110213390D01*
X210923095Y-110213390D02*
X210351667Y-110784819D01*
X210351667Y-110784819D02*
X210970714Y-110784819D01*
X209415142Y-92815580D02*
X209367523Y-92863200D01*
X209367523Y-92863200D02*
X209224666Y-92910819D01*
X209224666Y-92910819D02*
X209129428Y-92910819D01*
X209129428Y-92910819D02*
X208986571Y-92863200D01*
X208986571Y-92863200D02*
X208891333Y-92767961D01*
X208891333Y-92767961D02*
X208843714Y-92672723D01*
X208843714Y-92672723D02*
X208796095Y-92482247D01*
X208796095Y-92482247D02*
X208796095Y-92339390D01*
X208796095Y-92339390D02*
X208843714Y-92148914D01*
X208843714Y-92148914D02*
X208891333Y-92053676D01*
X208891333Y-92053676D02*
X208986571Y-91958438D01*
X208986571Y-91958438D02*
X209129428Y-91910819D01*
X209129428Y-91910819D02*
X209224666Y-91910819D01*
X209224666Y-91910819D02*
X209367523Y-91958438D01*
X209367523Y-91958438D02*
X209415142Y-92006057D01*
X210367523Y-92910819D02*
X209796095Y-92910819D01*
X210081809Y-92910819D02*
X210081809Y-91910819D01*
X210081809Y-91910819D02*
X209986571Y-92053676D01*
X209986571Y-92053676D02*
X209891333Y-92148914D01*
X209891333Y-92148914D02*
X209796095Y-92196533D01*
X211319904Y-92910819D02*
X210748476Y-92910819D01*
X211034190Y-92910819D02*
X211034190Y-91910819D01*
X211034190Y-91910819D02*
X210938952Y-92053676D01*
X210938952Y-92053676D02*
X210843714Y-92148914D01*
X210843714Y-92148914D02*
X210748476Y-92196533D01*
X210018333Y-113959819D02*
X209685000Y-113483628D01*
X209446905Y-113959819D02*
X209446905Y-112959819D01*
X209446905Y-112959819D02*
X209827857Y-112959819D01*
X209827857Y-112959819D02*
X209923095Y-113007438D01*
X209923095Y-113007438D02*
X209970714Y-113055057D01*
X209970714Y-113055057D02*
X210018333Y-113150295D01*
X210018333Y-113150295D02*
X210018333Y-113293152D01*
X210018333Y-113293152D02*
X209970714Y-113388390D01*
X209970714Y-113388390D02*
X209923095Y-113436009D01*
X209923095Y-113436009D02*
X209827857Y-113483628D01*
X209827857Y-113483628D02*
X209446905Y-113483628D01*
X210875476Y-112959819D02*
X210685000Y-112959819D01*
X210685000Y-112959819D02*
X210589762Y-113007438D01*
X210589762Y-113007438D02*
X210542143Y-113055057D01*
X210542143Y-113055057D02*
X210446905Y-113197914D01*
X210446905Y-113197914D02*
X210399286Y-113388390D01*
X210399286Y-113388390D02*
X210399286Y-113769342D01*
X210399286Y-113769342D02*
X210446905Y-113864580D01*
X210446905Y-113864580D02*
X210494524Y-113912200D01*
X210494524Y-113912200D02*
X210589762Y-113959819D01*
X210589762Y-113959819D02*
X210780238Y-113959819D01*
X210780238Y-113959819D02*
X210875476Y-113912200D01*
X210875476Y-113912200D02*
X210923095Y-113864580D01*
X210923095Y-113864580D02*
X210970714Y-113769342D01*
X210970714Y-113769342D02*
X210970714Y-113531247D01*
X210970714Y-113531247D02*
X210923095Y-113436009D01*
X210923095Y-113436009D02*
X210875476Y-113388390D01*
X210875476Y-113388390D02*
X210780238Y-113340771D01*
X210780238Y-113340771D02*
X210589762Y-113340771D01*
X210589762Y-113340771D02*
X210494524Y-113388390D01*
X210494524Y-113388390D02*
X210446905Y-113436009D01*
X210446905Y-113436009D02*
X210399286Y-113531247D01*
X172386666Y-115751319D02*
X172386666Y-116465604D01*
X172386666Y-116465604D02*
X172339047Y-116608461D01*
X172339047Y-116608461D02*
X172243809Y-116703700D01*
X172243809Y-116703700D02*
X172100952Y-116751319D01*
X172100952Y-116751319D02*
X172005714Y-116751319D01*
X172815238Y-115846557D02*
X172862857Y-115798938D01*
X172862857Y-115798938D02*
X172958095Y-115751319D01*
X172958095Y-115751319D02*
X173196190Y-115751319D01*
X173196190Y-115751319D02*
X173291428Y-115798938D01*
X173291428Y-115798938D02*
X173339047Y-115846557D01*
X173339047Y-115846557D02*
X173386666Y-115941795D01*
X173386666Y-115941795D02*
X173386666Y-116037033D01*
X173386666Y-116037033D02*
X173339047Y-116179890D01*
X173339047Y-116179890D02*
X172767619Y-116751319D01*
X172767619Y-116751319D02*
X173386666Y-116751319D01*
D11*
X184404095Y-137633419D02*
X184404095Y-138442942D01*
X184404095Y-138442942D02*
X184451714Y-138538180D01*
X184451714Y-138538180D02*
X184499333Y-138585800D01*
X184499333Y-138585800D02*
X184594571Y-138633419D01*
X184594571Y-138633419D02*
X184785047Y-138633419D01*
X184785047Y-138633419D02*
X184880285Y-138585800D01*
X184880285Y-138585800D02*
X184927904Y-138538180D01*
X184927904Y-138538180D02*
X184975523Y-138442942D01*
X184975523Y-138442942D02*
X184975523Y-137633419D01*
X185880285Y-137966752D02*
X185880285Y-138633419D01*
X185642190Y-137585800D02*
X185404095Y-138300085D01*
X185404095Y-138300085D02*
X186023142Y-138300085D01*
D10*
X166743142Y-103070819D02*
X166409809Y-102594628D01*
X166171714Y-103070819D02*
X166171714Y-102070819D01*
X166171714Y-102070819D02*
X166552666Y-102070819D01*
X166552666Y-102070819D02*
X166647904Y-102118438D01*
X166647904Y-102118438D02*
X166695523Y-102166057D01*
X166695523Y-102166057D02*
X166743142Y-102261295D01*
X166743142Y-102261295D02*
X166743142Y-102404152D01*
X166743142Y-102404152D02*
X166695523Y-102499390D01*
X166695523Y-102499390D02*
X166647904Y-102547009D01*
X166647904Y-102547009D02*
X166552666Y-102594628D01*
X166552666Y-102594628D02*
X166171714Y-102594628D01*
X167695523Y-103070819D02*
X167124095Y-103070819D01*
X167409809Y-103070819D02*
X167409809Y-102070819D01*
X167409809Y-102070819D02*
X167314571Y-102213676D01*
X167314571Y-102213676D02*
X167219333Y-102308914D01*
X167219333Y-102308914D02*
X167124095Y-102356533D01*
X168314571Y-102070819D02*
X168409809Y-102070819D01*
X168409809Y-102070819D02*
X168505047Y-102118438D01*
X168505047Y-102118438D02*
X168552666Y-102166057D01*
X168552666Y-102166057D02*
X168600285Y-102261295D01*
X168600285Y-102261295D02*
X168647904Y-102451771D01*
X168647904Y-102451771D02*
X168647904Y-102689866D01*
X168647904Y-102689866D02*
X168600285Y-102880342D01*
X168600285Y-102880342D02*
X168552666Y-102975580D01*
X168552666Y-102975580D02*
X168505047Y-103023200D01*
X168505047Y-103023200D02*
X168409809Y-103070819D01*
X168409809Y-103070819D02*
X168314571Y-103070819D01*
X168314571Y-103070819D02*
X168219333Y-103023200D01*
X168219333Y-103023200D02*
X168171714Y-102975580D01*
X168171714Y-102975580D02*
X168124095Y-102880342D01*
X168124095Y-102880342D02*
X168076476Y-102689866D01*
X168076476Y-102689866D02*
X168076476Y-102451771D01*
X168076476Y-102451771D02*
X168124095Y-102261295D01*
X168124095Y-102261295D02*
X168171714Y-102166057D01*
X168171714Y-102166057D02*
X168219333Y-102118438D01*
X168219333Y-102118438D02*
X168314571Y-102070819D01*
X138437200Y-68685832D02*
X138484819Y-68542975D01*
X138484819Y-68542975D02*
X138484819Y-68304880D01*
X138484819Y-68304880D02*
X138437200Y-68209642D01*
X138437200Y-68209642D02*
X138389580Y-68162023D01*
X138389580Y-68162023D02*
X138294342Y-68114404D01*
X138294342Y-68114404D02*
X138199104Y-68114404D01*
X138199104Y-68114404D02*
X138103866Y-68162023D01*
X138103866Y-68162023D02*
X138056247Y-68209642D01*
X138056247Y-68209642D02*
X138008628Y-68304880D01*
X138008628Y-68304880D02*
X137961009Y-68495356D01*
X137961009Y-68495356D02*
X137913390Y-68590594D01*
X137913390Y-68590594D02*
X137865771Y-68638213D01*
X137865771Y-68638213D02*
X137770533Y-68685832D01*
X137770533Y-68685832D02*
X137675295Y-68685832D01*
X137675295Y-68685832D02*
X137580057Y-68638213D01*
X137580057Y-68638213D02*
X137532438Y-68590594D01*
X137532438Y-68590594D02*
X137484819Y-68495356D01*
X137484819Y-68495356D02*
X137484819Y-68257261D01*
X137484819Y-68257261D02*
X137532438Y-68114404D01*
X137484819Y-67781070D02*
X138484819Y-67542975D01*
X138484819Y-67542975D02*
X137770533Y-67352499D01*
X137770533Y-67352499D02*
X138484819Y-67162023D01*
X138484819Y-67162023D02*
X137484819Y-66923928D01*
X137580057Y-66590594D02*
X137532438Y-66542975D01*
X137532438Y-66542975D02*
X137484819Y-66447737D01*
X137484819Y-66447737D02*
X137484819Y-66209642D01*
X137484819Y-66209642D02*
X137532438Y-66114404D01*
X137532438Y-66114404D02*
X137580057Y-66066785D01*
X137580057Y-66066785D02*
X137675295Y-66019166D01*
X137675295Y-66019166D02*
X137770533Y-66019166D01*
X137770533Y-66019166D02*
X137913390Y-66066785D01*
X137913390Y-66066785D02*
X138484819Y-66638213D01*
X138484819Y-66638213D02*
X138484819Y-66019166D01*
X210018333Y-107609819D02*
X209685000Y-107133628D01*
X209446905Y-107609819D02*
X209446905Y-106609819D01*
X209446905Y-106609819D02*
X209827857Y-106609819D01*
X209827857Y-106609819D02*
X209923095Y-106657438D01*
X209923095Y-106657438D02*
X209970714Y-106705057D01*
X209970714Y-106705057D02*
X210018333Y-106800295D01*
X210018333Y-106800295D02*
X210018333Y-106943152D01*
X210018333Y-106943152D02*
X209970714Y-107038390D01*
X209970714Y-107038390D02*
X209923095Y-107086009D01*
X209923095Y-107086009D02*
X209827857Y-107133628D01*
X209827857Y-107133628D02*
X209446905Y-107133628D01*
X210351667Y-106609819D02*
X211018333Y-106609819D01*
X211018333Y-106609819D02*
X210589762Y-107609819D01*
X155702095Y-72614819D02*
X155702095Y-73424342D01*
X155702095Y-73424342D02*
X155749714Y-73519580D01*
X155749714Y-73519580D02*
X155797333Y-73567200D01*
X155797333Y-73567200D02*
X155892571Y-73614819D01*
X155892571Y-73614819D02*
X156083047Y-73614819D01*
X156083047Y-73614819D02*
X156178285Y-73567200D01*
X156178285Y-73567200D02*
X156225904Y-73519580D01*
X156225904Y-73519580D02*
X156273523Y-73424342D01*
X156273523Y-73424342D02*
X156273523Y-72614819D01*
X156654476Y-72614819D02*
X157273523Y-72614819D01*
X157273523Y-72614819D02*
X156940190Y-72995771D01*
X156940190Y-72995771D02*
X157083047Y-72995771D01*
X157083047Y-72995771D02*
X157178285Y-73043390D01*
X157178285Y-73043390D02*
X157225904Y-73091009D01*
X157225904Y-73091009D02*
X157273523Y-73186247D01*
X157273523Y-73186247D02*
X157273523Y-73424342D01*
X157273523Y-73424342D02*
X157225904Y-73519580D01*
X157225904Y-73519580D02*
X157178285Y-73567200D01*
X157178285Y-73567200D02*
X157083047Y-73614819D01*
X157083047Y-73614819D02*
X156797333Y-73614819D01*
X156797333Y-73614819D02*
X156702095Y-73567200D01*
X156702095Y-73567200D02*
X156654476Y-73519580D01*
X88566666Y-60104819D02*
X88566666Y-60819104D01*
X88566666Y-60819104D02*
X88519047Y-60961961D01*
X88519047Y-60961961D02*
X88423809Y-61057200D01*
X88423809Y-61057200D02*
X88280952Y-61104819D01*
X88280952Y-61104819D02*
X88185714Y-61104819D01*
X89471428Y-60104819D02*
X89280952Y-60104819D01*
X89280952Y-60104819D02*
X89185714Y-60152438D01*
X89185714Y-60152438D02*
X89138095Y-60200057D01*
X89138095Y-60200057D02*
X89042857Y-60342914D01*
X89042857Y-60342914D02*
X88995238Y-60533390D01*
X88995238Y-60533390D02*
X88995238Y-60914342D01*
X88995238Y-60914342D02*
X89042857Y-61009580D01*
X89042857Y-61009580D02*
X89090476Y-61057200D01*
X89090476Y-61057200D02*
X89185714Y-61104819D01*
X89185714Y-61104819D02*
X89376190Y-61104819D01*
X89376190Y-61104819D02*
X89471428Y-61057200D01*
X89471428Y-61057200D02*
X89519047Y-61009580D01*
X89519047Y-61009580D02*
X89566666Y-60914342D01*
X89566666Y-60914342D02*
X89566666Y-60676247D01*
X89566666Y-60676247D02*
X89519047Y-60581009D01*
X89519047Y-60581009D02*
X89471428Y-60533390D01*
X89471428Y-60533390D02*
X89376190Y-60485771D01*
X89376190Y-60485771D02*
X89185714Y-60485771D01*
X89185714Y-60485771D02*
X89090476Y-60533390D01*
X89090476Y-60533390D02*
X89042857Y-60581009D01*
X89042857Y-60581009D02*
X88995238Y-60676247D01*
X87528819Y-117345333D02*
X88243104Y-117345333D01*
X88243104Y-117345333D02*
X88385961Y-117392952D01*
X88385961Y-117392952D02*
X88481200Y-117488190D01*
X88481200Y-117488190D02*
X88528819Y-117631047D01*
X88528819Y-117631047D02*
X88528819Y-117726285D01*
X88528819Y-116345333D02*
X88528819Y-116916761D01*
X88528819Y-116631047D02*
X87528819Y-116631047D01*
X87528819Y-116631047D02*
X87671676Y-116726285D01*
X87671676Y-116726285D02*
X87766914Y-116821523D01*
X87766914Y-116821523D02*
X87814533Y-116916761D01*
X167566819Y-96853333D02*
X168281104Y-96853333D01*
X168281104Y-96853333D02*
X168423961Y-96900952D01*
X168423961Y-96900952D02*
X168519200Y-96996190D01*
X168519200Y-96996190D02*
X168566819Y-97139047D01*
X168566819Y-97139047D02*
X168566819Y-97234285D01*
X167900152Y-95948571D02*
X168566819Y-95948571D01*
X167519200Y-96186666D02*
X168233485Y-96424761D01*
X168233485Y-96424761D02*
X168233485Y-95805714D01*
X158416666Y-89934819D02*
X158416666Y-90649104D01*
X158416666Y-90649104D02*
X158369047Y-90791961D01*
X158369047Y-90791961D02*
X158273809Y-90887200D01*
X158273809Y-90887200D02*
X158130952Y-90934819D01*
X158130952Y-90934819D02*
X158035714Y-90934819D01*
X159369047Y-89934819D02*
X158892857Y-89934819D01*
X158892857Y-89934819D02*
X158845238Y-90411009D01*
X158845238Y-90411009D02*
X158892857Y-90363390D01*
X158892857Y-90363390D02*
X158988095Y-90315771D01*
X158988095Y-90315771D02*
X159226190Y-90315771D01*
X159226190Y-90315771D02*
X159321428Y-90363390D01*
X159321428Y-90363390D02*
X159369047Y-90411009D01*
X159369047Y-90411009D02*
X159416666Y-90506247D01*
X159416666Y-90506247D02*
X159416666Y-90744342D01*
X159416666Y-90744342D02*
X159369047Y-90839580D01*
X159369047Y-90839580D02*
X159321428Y-90887200D01*
X159321428Y-90887200D02*
X159226190Y-90934819D01*
X159226190Y-90934819D02*
X158988095Y-90934819D01*
X158988095Y-90934819D02*
X158892857Y-90887200D01*
X158892857Y-90887200D02*
X158845238Y-90839580D01*
X171555580Y-104560666D02*
X171603200Y-104608285D01*
X171603200Y-104608285D02*
X171650819Y-104751142D01*
X171650819Y-104751142D02*
X171650819Y-104846380D01*
X171650819Y-104846380D02*
X171603200Y-104989237D01*
X171603200Y-104989237D02*
X171507961Y-105084475D01*
X171507961Y-105084475D02*
X171412723Y-105132094D01*
X171412723Y-105132094D02*
X171222247Y-105179713D01*
X171222247Y-105179713D02*
X171079390Y-105179713D01*
X171079390Y-105179713D02*
X170888914Y-105132094D01*
X170888914Y-105132094D02*
X170793676Y-105084475D01*
X170793676Y-105084475D02*
X170698438Y-104989237D01*
X170698438Y-104989237D02*
X170650819Y-104846380D01*
X170650819Y-104846380D02*
X170650819Y-104751142D01*
X170650819Y-104751142D02*
X170698438Y-104608285D01*
X170698438Y-104608285D02*
X170746057Y-104560666D01*
X171650819Y-103608285D02*
X171650819Y-104179713D01*
X171650819Y-103893999D02*
X170650819Y-103893999D01*
X170650819Y-103893999D02*
X170793676Y-103989237D01*
X170793676Y-103989237D02*
X170888914Y-104084475D01*
X170888914Y-104084475D02*
X170936533Y-104179713D01*
D11*
X189457419Y-83311904D02*
X190266942Y-83311904D01*
X190266942Y-83311904D02*
X190362180Y-83264285D01*
X190362180Y-83264285D02*
X190409800Y-83216666D01*
X190409800Y-83216666D02*
X190457419Y-83121428D01*
X190457419Y-83121428D02*
X190457419Y-82930952D01*
X190457419Y-82930952D02*
X190409800Y-82835714D01*
X190409800Y-82835714D02*
X190362180Y-82788095D01*
X190362180Y-82788095D02*
X190266942Y-82740476D01*
X190266942Y-82740476D02*
X189457419Y-82740476D01*
X189457419Y-81835714D02*
X189457419Y-82026190D01*
X189457419Y-82026190D02*
X189505038Y-82121428D01*
X189505038Y-82121428D02*
X189552657Y-82169047D01*
X189552657Y-82169047D02*
X189695514Y-82264285D01*
X189695514Y-82264285D02*
X189885990Y-82311904D01*
X189885990Y-82311904D02*
X190266942Y-82311904D01*
X190266942Y-82311904D02*
X190362180Y-82264285D01*
X190362180Y-82264285D02*
X190409800Y-82216666D01*
X190409800Y-82216666D02*
X190457419Y-82121428D01*
X190457419Y-82121428D02*
X190457419Y-81930952D01*
X190457419Y-81930952D02*
X190409800Y-81835714D01*
X190409800Y-81835714D02*
X190362180Y-81788095D01*
X190362180Y-81788095D02*
X190266942Y-81740476D01*
X190266942Y-81740476D02*
X190028847Y-81740476D01*
X190028847Y-81740476D02*
X189933609Y-81788095D01*
X189933609Y-81788095D02*
X189885990Y-81835714D01*
X189885990Y-81835714D02*
X189838371Y-81930952D01*
X189838371Y-81930952D02*
X189838371Y-82121428D01*
X189838371Y-82121428D02*
X189885990Y-82216666D01*
X189885990Y-82216666D02*
X189933609Y-82264285D01*
X189933609Y-82264285D02*
X190028847Y-82311904D01*
D10*
X209446905Y-117134819D02*
X209446905Y-116134819D01*
X209446905Y-116134819D02*
X209685000Y-116134819D01*
X209685000Y-116134819D02*
X209827857Y-116182438D01*
X209827857Y-116182438D02*
X209923095Y-116277676D01*
X209923095Y-116277676D02*
X209970714Y-116372914D01*
X209970714Y-116372914D02*
X210018333Y-116563390D01*
X210018333Y-116563390D02*
X210018333Y-116706247D01*
X210018333Y-116706247D02*
X209970714Y-116896723D01*
X209970714Y-116896723D02*
X209923095Y-116991961D01*
X209923095Y-116991961D02*
X209827857Y-117087200D01*
X209827857Y-117087200D02*
X209685000Y-117134819D01*
X209685000Y-117134819D02*
X209446905Y-117134819D01*
X210970714Y-117134819D02*
X210399286Y-117134819D01*
X210685000Y-117134819D02*
X210685000Y-116134819D01*
X210685000Y-116134819D02*
X210589762Y-116277676D01*
X210589762Y-116277676D02*
X210494524Y-116372914D01*
X210494524Y-116372914D02*
X210399286Y-116420533D01*
X86273333Y-108321009D02*
X86416190Y-108368628D01*
X86416190Y-108368628D02*
X86463809Y-108416247D01*
X86463809Y-108416247D02*
X86511428Y-108511485D01*
X86511428Y-108511485D02*
X86511428Y-108654342D01*
X86511428Y-108654342D02*
X86463809Y-108749580D01*
X86463809Y-108749580D02*
X86416190Y-108797200D01*
X86416190Y-108797200D02*
X86320952Y-108844819D01*
X86320952Y-108844819D02*
X85940000Y-108844819D01*
X85940000Y-108844819D02*
X85940000Y-107844819D01*
X85940000Y-107844819D02*
X86273333Y-107844819D01*
X86273333Y-107844819D02*
X86368571Y-107892438D01*
X86368571Y-107892438D02*
X86416190Y-107940057D01*
X86416190Y-107940057D02*
X86463809Y-108035295D01*
X86463809Y-108035295D02*
X86463809Y-108130533D01*
X86463809Y-108130533D02*
X86416190Y-108225771D01*
X86416190Y-108225771D02*
X86368571Y-108273390D01*
X86368571Y-108273390D02*
X86273333Y-108321009D01*
X86273333Y-108321009D02*
X85940000Y-108321009D01*
X86940000Y-108844819D02*
X86940000Y-108178152D01*
X86940000Y-108368628D02*
X86987619Y-108273390D01*
X86987619Y-108273390D02*
X87035238Y-108225771D01*
X87035238Y-108225771D02*
X87130476Y-108178152D01*
X87130476Y-108178152D02*
X87225714Y-108178152D01*
X87987619Y-108844819D02*
X87987619Y-107844819D01*
X87987619Y-108797200D02*
X87892381Y-108844819D01*
X87892381Y-108844819D02*
X87701905Y-108844819D01*
X87701905Y-108844819D02*
X87606667Y-108797200D01*
X87606667Y-108797200D02*
X87559048Y-108749580D01*
X87559048Y-108749580D02*
X87511429Y-108654342D01*
X87511429Y-108654342D02*
X87511429Y-108368628D01*
X87511429Y-108368628D02*
X87559048Y-108273390D01*
X87559048Y-108273390D02*
X87606667Y-108225771D01*
X87606667Y-108225771D02*
X87701905Y-108178152D01*
X87701905Y-108178152D02*
X87892381Y-108178152D01*
X87892381Y-108178152D02*
X87987619Y-108225771D01*
X88987619Y-108844819D02*
X88416191Y-108844819D01*
X88701905Y-108844819D02*
X88701905Y-107844819D01*
X88701905Y-107844819D02*
X88606667Y-107987676D01*
X88606667Y-107987676D02*
X88511429Y-108082914D01*
X88511429Y-108082914D02*
X88416191Y-108130533D01*
X74709580Y-71127857D02*
X74757200Y-71175476D01*
X74757200Y-71175476D02*
X74804819Y-71318333D01*
X74804819Y-71318333D02*
X74804819Y-71413571D01*
X74804819Y-71413571D02*
X74757200Y-71556428D01*
X74757200Y-71556428D02*
X74661961Y-71651666D01*
X74661961Y-71651666D02*
X74566723Y-71699285D01*
X74566723Y-71699285D02*
X74376247Y-71746904D01*
X74376247Y-71746904D02*
X74233390Y-71746904D01*
X74233390Y-71746904D02*
X74042914Y-71699285D01*
X74042914Y-71699285D02*
X73947676Y-71651666D01*
X73947676Y-71651666D02*
X73852438Y-71556428D01*
X73852438Y-71556428D02*
X73804819Y-71413571D01*
X73804819Y-71413571D02*
X73804819Y-71318333D01*
X73804819Y-71318333D02*
X73852438Y-71175476D01*
X73852438Y-71175476D02*
X73900057Y-71127857D01*
X74804819Y-70175476D02*
X74804819Y-70746904D01*
X74804819Y-70461190D02*
X73804819Y-70461190D01*
X73804819Y-70461190D02*
X73947676Y-70556428D01*
X73947676Y-70556428D02*
X74042914Y-70651666D01*
X74042914Y-70651666D02*
X74090533Y-70746904D01*
X74233390Y-69604047D02*
X74185771Y-69699285D01*
X74185771Y-69699285D02*
X74138152Y-69746904D01*
X74138152Y-69746904D02*
X74042914Y-69794523D01*
X74042914Y-69794523D02*
X73995295Y-69794523D01*
X73995295Y-69794523D02*
X73900057Y-69746904D01*
X73900057Y-69746904D02*
X73852438Y-69699285D01*
X73852438Y-69699285D02*
X73804819Y-69604047D01*
X73804819Y-69604047D02*
X73804819Y-69413571D01*
X73804819Y-69413571D02*
X73852438Y-69318333D01*
X73852438Y-69318333D02*
X73900057Y-69270714D01*
X73900057Y-69270714D02*
X73995295Y-69223095D01*
X73995295Y-69223095D02*
X74042914Y-69223095D01*
X74042914Y-69223095D02*
X74138152Y-69270714D01*
X74138152Y-69270714D02*
X74185771Y-69318333D01*
X74185771Y-69318333D02*
X74233390Y-69413571D01*
X74233390Y-69413571D02*
X74233390Y-69604047D01*
X74233390Y-69604047D02*
X74281009Y-69699285D01*
X74281009Y-69699285D02*
X74328628Y-69746904D01*
X74328628Y-69746904D02*
X74423866Y-69794523D01*
X74423866Y-69794523D02*
X74614342Y-69794523D01*
X74614342Y-69794523D02*
X74709580Y-69746904D01*
X74709580Y-69746904D02*
X74757200Y-69699285D01*
X74757200Y-69699285D02*
X74804819Y-69604047D01*
X74804819Y-69604047D02*
X74804819Y-69413571D01*
X74804819Y-69413571D02*
X74757200Y-69318333D01*
X74757200Y-69318333D02*
X74709580Y-69270714D01*
X74709580Y-69270714D02*
X74614342Y-69223095D01*
X74614342Y-69223095D02*
X74423866Y-69223095D01*
X74423866Y-69223095D02*
X74328628Y-69270714D01*
X74328628Y-69270714D02*
X74281009Y-69318333D01*
X74281009Y-69318333D02*
X74233390Y-69413571D01*
D11*
X195834095Y-137633419D02*
X195834095Y-138442942D01*
X195834095Y-138442942D02*
X195881714Y-138538180D01*
X195881714Y-138538180D02*
X195929333Y-138585800D01*
X195929333Y-138585800D02*
X196024571Y-138633419D01*
X196024571Y-138633419D02*
X196215047Y-138633419D01*
X196215047Y-138633419D02*
X196310285Y-138585800D01*
X196310285Y-138585800D02*
X196357904Y-138538180D01*
X196357904Y-138538180D02*
X196405523Y-138442942D01*
X196405523Y-138442942D02*
X196405523Y-137633419D01*
X197357904Y-137633419D02*
X196881714Y-137633419D01*
X196881714Y-137633419D02*
X196834095Y-138109609D01*
X196834095Y-138109609D02*
X196881714Y-138061990D01*
X196881714Y-138061990D02*
X196976952Y-138014371D01*
X196976952Y-138014371D02*
X197215047Y-138014371D01*
X197215047Y-138014371D02*
X197310285Y-138061990D01*
X197310285Y-138061990D02*
X197357904Y-138109609D01*
X197357904Y-138109609D02*
X197405523Y-138204847D01*
X197405523Y-138204847D02*
X197405523Y-138442942D01*
X197405523Y-138442942D02*
X197357904Y-138538180D01*
X197357904Y-138538180D02*
X197310285Y-138585800D01*
X197310285Y-138585800D02*
X197215047Y-138633419D01*
X197215047Y-138633419D02*
X196976952Y-138633419D01*
X196976952Y-138633419D02*
X196881714Y-138585800D01*
X196881714Y-138585800D02*
X196834095Y-138538180D01*
D10*
X164312200Y-110987332D02*
X164359819Y-110844475D01*
X164359819Y-110844475D02*
X164359819Y-110606380D01*
X164359819Y-110606380D02*
X164312200Y-110511142D01*
X164312200Y-110511142D02*
X164264580Y-110463523D01*
X164264580Y-110463523D02*
X164169342Y-110415904D01*
X164169342Y-110415904D02*
X164074104Y-110415904D01*
X164074104Y-110415904D02*
X163978866Y-110463523D01*
X163978866Y-110463523D02*
X163931247Y-110511142D01*
X163931247Y-110511142D02*
X163883628Y-110606380D01*
X163883628Y-110606380D02*
X163836009Y-110796856D01*
X163836009Y-110796856D02*
X163788390Y-110892094D01*
X163788390Y-110892094D02*
X163740771Y-110939713D01*
X163740771Y-110939713D02*
X163645533Y-110987332D01*
X163645533Y-110987332D02*
X163550295Y-110987332D01*
X163550295Y-110987332D02*
X163455057Y-110939713D01*
X163455057Y-110939713D02*
X163407438Y-110892094D01*
X163407438Y-110892094D02*
X163359819Y-110796856D01*
X163359819Y-110796856D02*
X163359819Y-110558761D01*
X163359819Y-110558761D02*
X163407438Y-110415904D01*
X163359819Y-110082570D02*
X164359819Y-109844475D01*
X164359819Y-109844475D02*
X163645533Y-109653999D01*
X163645533Y-109653999D02*
X164359819Y-109463523D01*
X164359819Y-109463523D02*
X163359819Y-109225428D01*
X164359819Y-108320666D02*
X164359819Y-108892094D01*
X164359819Y-108606380D02*
X163359819Y-108606380D01*
X163359819Y-108606380D02*
X163502676Y-108701618D01*
X163502676Y-108701618D02*
X163597914Y-108796856D01*
X163597914Y-108796856D02*
X163645533Y-108892094D01*
X163663333Y-116278819D02*
X163330000Y-115802628D01*
X163091905Y-116278819D02*
X163091905Y-115278819D01*
X163091905Y-115278819D02*
X163472857Y-115278819D01*
X163472857Y-115278819D02*
X163568095Y-115326438D01*
X163568095Y-115326438D02*
X163615714Y-115374057D01*
X163615714Y-115374057D02*
X163663333Y-115469295D01*
X163663333Y-115469295D02*
X163663333Y-115612152D01*
X163663333Y-115612152D02*
X163615714Y-115707390D01*
X163615714Y-115707390D02*
X163568095Y-115755009D01*
X163568095Y-115755009D02*
X163472857Y-115802628D01*
X163472857Y-115802628D02*
X163091905Y-115802628D01*
X164615714Y-116278819D02*
X164044286Y-116278819D01*
X164330000Y-116278819D02*
X164330000Y-115278819D01*
X164330000Y-115278819D02*
X164234762Y-115421676D01*
X164234762Y-115421676D02*
X164139524Y-115516914D01*
X164139524Y-115516914D02*
X164044286Y-115564533D01*
D12*
%TO.C,J7*%
X172358000Y-139668000D02*
X172358000Y-135668000D01*
X172068000Y-140698000D02*
X172068000Y-134678000D01*
X172068000Y-134678000D02*
X156608000Y-134678000D01*
X171488000Y-140698000D02*
X171488000Y-140098000D01*
X171488000Y-140098000D02*
X169888000Y-140098000D01*
X170688000Y-135678000D02*
X170438000Y-136208000D01*
X170688000Y-135678000D02*
X157988000Y-135678000D01*
X170688000Y-134678000D02*
X170688000Y-135678000D01*
X170438000Y-136208000D02*
X158238000Y-136208000D01*
X170438000Y-134678000D02*
X170438000Y-135678000D01*
X169888000Y-140098000D02*
X169888000Y-140698000D01*
X168948000Y-140698000D02*
X168948000Y-140098000D01*
X168948000Y-140098000D02*
X167348000Y-140098000D01*
X167348000Y-140098000D02*
X167348000Y-140698000D01*
X166408000Y-140698000D02*
X166408000Y-140098000D01*
X166408000Y-140098000D02*
X164808000Y-140098000D01*
X164808000Y-140098000D02*
X164808000Y-140698000D01*
X163868000Y-140698000D02*
X163868000Y-140098000D01*
X163868000Y-140098000D02*
X162268000Y-140098000D01*
X162268000Y-140098000D02*
X162268000Y-140698000D01*
X161328000Y-140698000D02*
X161328000Y-140098000D01*
X161328000Y-140098000D02*
X159728000Y-140098000D01*
X159728000Y-140098000D02*
X159728000Y-140698000D01*
X158788000Y-140698000D02*
X158788000Y-140098000D01*
X158788000Y-140098000D02*
X157188000Y-140098000D01*
X158238000Y-136208000D02*
X157988000Y-135678000D01*
X158238000Y-134678000D02*
X158238000Y-135678000D01*
X157988000Y-135678000D02*
X157988000Y-134678000D01*
X157188000Y-140098000D02*
X157188000Y-140698000D01*
X156608000Y-140698000D02*
X172068000Y-140698000D01*
X156608000Y-134678000D02*
X156608000Y-140698000D01*
%TO.C,U1*%
X169945000Y-109364000D02*
X169945000Y-105914000D01*
X169945000Y-109364000D02*
X169945000Y-111314000D01*
X164825000Y-109364000D02*
X164825000Y-107414000D01*
X164825000Y-109364000D02*
X164825000Y-111314000D01*
D10*
%TO.C,U2*%
X73660000Y-78740000D02*
X74930000Y-78740000D01*
X73660000Y-86360000D02*
X73660000Y-78740000D01*
X74930000Y-73660000D02*
X135890000Y-73660000D01*
X74930000Y-86360000D02*
X73660000Y-86360000D01*
X74930000Y-91440000D02*
X74930000Y-73660000D01*
X80010000Y-78740000D02*
X74930000Y-78740000D01*
X80010000Y-86360000D02*
X74930000Y-86360000D01*
X80010000Y-86360000D02*
X80010000Y-78740000D01*
X81229200Y-85849200D02*
X83769200Y-85849200D01*
X81229200Y-85849200D02*
X93929200Y-85849200D01*
X81229200Y-88389200D02*
X81229200Y-85849200D01*
X83769200Y-85849200D02*
X83769200Y-88389200D01*
X88160000Y-76198400D02*
X88160000Y-76448400D01*
X88160000Y-76448400D02*
X88160000Y-82448400D01*
X88160000Y-82448400D02*
X92160000Y-82448400D01*
X92160000Y-76198400D02*
X88160000Y-76198400D01*
X92160000Y-82448400D02*
X92160000Y-76198400D01*
X93929200Y-85849200D02*
X93929200Y-88389200D01*
X93929200Y-88389200D02*
X81229200Y-88389200D01*
X97790000Y-76200000D02*
X97790000Y-88900000D01*
X97790000Y-88900000D02*
X110490000Y-88900000D01*
X110490000Y-76200000D02*
X97790000Y-76200000D01*
X110490000Y-88900000D02*
X110490000Y-76200000D01*
X115570000Y-81280000D02*
X119380000Y-81280000D01*
X115570000Y-83820000D02*
X115570000Y-81280000D01*
X119380000Y-81280000D02*
X119380000Y-83820000D01*
X119380000Y-83820000D02*
X115570000Y-83820000D01*
X123190000Y-76200000D02*
X123190000Y-88900000D01*
X123190000Y-88900000D02*
X135890000Y-88900000D01*
X134620000Y-77470000D02*
X134620000Y-87630000D01*
X134620000Y-87630000D02*
X135890000Y-87630000D01*
X135890000Y-73660000D02*
X135890000Y-91440000D01*
X135890000Y-76200000D02*
X123190000Y-76200000D01*
X135890000Y-77470000D02*
X134620000Y-77470000D01*
X135890000Y-91440000D02*
X74930000Y-91440000D01*
X118373026Y-82550000D02*
G75*
G03*
X118373026Y-82550000I-898026J0D01*
G01*
D11*
X106321000Y-81862000D02*
X106067000Y-82116000D01*
X105813000Y-81735000D01*
X106067000Y-81481000D01*
X106321000Y-81862000D01*
G36*
X106321000Y-81862000D02*
G01*
X106067000Y-82116000D01*
X105813000Y-81735000D01*
X106067000Y-81481000D01*
X106321000Y-81862000D01*
G37*
X106702000Y-82370000D02*
X106448000Y-82624000D01*
X106194000Y-82243000D01*
X106448000Y-81989000D01*
X106702000Y-82370000D01*
G36*
X106702000Y-82370000D02*
G01*
X106448000Y-82624000D01*
X106194000Y-82243000D01*
X106448000Y-81989000D01*
X106702000Y-82370000D01*
G37*
X107083000Y-81989000D02*
X106829000Y-82243000D01*
X106575000Y-81862000D01*
X106829000Y-81608000D01*
X107083000Y-81989000D01*
G36*
X107083000Y-81989000D02*
G01*
X106829000Y-82243000D01*
X106575000Y-81862000D01*
X106829000Y-81608000D01*
X107083000Y-81989000D01*
G37*
X107083000Y-82878000D02*
X106829000Y-83132000D01*
X106575000Y-82751000D01*
X106829000Y-82497000D01*
X107083000Y-82878000D01*
G36*
X107083000Y-82878000D02*
G01*
X106829000Y-83132000D01*
X106575000Y-82751000D01*
X106829000Y-82497000D01*
X107083000Y-82878000D01*
G37*
X107464000Y-82497000D02*
X107210000Y-82751000D01*
X106956000Y-82370000D01*
X107210000Y-82116000D01*
X107464000Y-82497000D01*
G36*
X107464000Y-82497000D02*
G01*
X107210000Y-82751000D01*
X106956000Y-82370000D01*
X107210000Y-82116000D01*
X107464000Y-82497000D01*
G37*
X107845000Y-83005000D02*
X107591000Y-83259000D01*
X107337000Y-82878000D01*
X107591000Y-82624000D01*
X107845000Y-83005000D01*
G36*
X107845000Y-83005000D02*
G01*
X107591000Y-83259000D01*
X107337000Y-82878000D01*
X107591000Y-82624000D01*
X107845000Y-83005000D01*
G37*
X108226000Y-82624000D02*
X107972000Y-82878000D01*
X107718000Y-82497000D01*
X107972000Y-82243000D01*
X108226000Y-82624000D01*
G36*
X108226000Y-82624000D02*
G01*
X107972000Y-82878000D01*
X107718000Y-82497000D01*
X107972000Y-82243000D01*
X108226000Y-82624000D01*
G37*
X108607000Y-82243000D02*
X108353000Y-82497000D01*
X108099000Y-82116000D01*
X108353000Y-81862000D01*
X108607000Y-82243000D01*
G36*
X108607000Y-82243000D02*
G01*
X108353000Y-82497000D01*
X108099000Y-82116000D01*
X108353000Y-81862000D01*
X108607000Y-82243000D01*
G37*
D12*
%TO.C,F1*%
X176670000Y-126408000D02*
X176670000Y-111608000D01*
X181470000Y-126408000D02*
X176670000Y-126408000D01*
X176670000Y-111608000D02*
X181470000Y-111608000D01*
X181470000Y-111608000D02*
X181470000Y-126408000D01*
%TO.C,C16*%
X80370000Y-71196252D02*
X80370000Y-69773748D01*
X82190000Y-71196252D02*
X82190000Y-69773748D01*
%TO.C,J3*%
X84602000Y-140440000D02*
X86602000Y-140440000D01*
X81052000Y-140255000D02*
X81052000Y-123905000D01*
X87292000Y-140255000D02*
X81052000Y-140255000D01*
X102842000Y-140255000D02*
X90492000Y-140255000D01*
X81052000Y-123905000D02*
X87292000Y-123910000D01*
X90492000Y-123905000D02*
X102842000Y-123905000D01*
X102842000Y-123905000D02*
X102842000Y-140255000D01*
%TO.C,SW3*%
X67195000Y-95030000D02*
X68395000Y-95030000D01*
X67495000Y-94730000D02*
X71695000Y-94730000D01*
X71695000Y-94730000D02*
X71695000Y-93530000D01*
X67195000Y-93830000D02*
X67195000Y-95030000D01*
X67495000Y-93530000D02*
X67495000Y-94730000D01*
X67495000Y-86730000D02*
X67495000Y-85530000D01*
X67495000Y-85530000D02*
X71695000Y-85530000D01*
X71695000Y-85530000D02*
X71695000Y-86730000D01*
%TO.C,C17*%
X172572000Y-110022752D02*
X172572000Y-108600248D01*
X174392000Y-110022752D02*
X174392000Y-108600248D01*
%TO.C,D2*%
X208525000Y-111025000D02*
X208525000Y-112495000D01*
X208525000Y-112495000D02*
X210985000Y-112495000D01*
X210985000Y-111025000D02*
X208525000Y-111025000D01*
%TO.C,C11*%
X212373000Y-82809651D02*
X212373000Y-83609651D01*
X212773000Y-83209651D02*
X211973000Y-83209651D01*
X214138000Y-87219349D02*
X205978000Y-87219349D01*
X214138000Y-87259349D02*
X205978000Y-87259349D01*
X214138000Y-87299349D02*
X205978000Y-87299349D01*
X214137000Y-87339349D02*
X205979000Y-87339349D01*
X214135000Y-87379349D02*
X205981000Y-87379349D01*
X214134000Y-87419349D02*
X205982000Y-87419349D01*
X214132000Y-87459349D02*
X211098000Y-87459349D01*
X209018000Y-87459349D02*
X205984000Y-87459349D01*
X214129000Y-87499349D02*
X211098000Y-87499349D01*
X209018000Y-87499349D02*
X205987000Y-87499349D01*
X214126000Y-87539349D02*
X211098000Y-87539349D01*
X209018000Y-87539349D02*
X205990000Y-87539349D01*
X214123000Y-87579349D02*
X211098000Y-87579349D01*
X209018000Y-87579349D02*
X205993000Y-87579349D01*
X214119000Y-87619349D02*
X211098000Y-87619349D01*
X209018000Y-87619349D02*
X205997000Y-87619349D01*
X214115000Y-87659349D02*
X211098000Y-87659349D01*
X209018000Y-87659349D02*
X206001000Y-87659349D01*
X214110000Y-87699349D02*
X211098000Y-87699349D01*
X209018000Y-87699349D02*
X206006000Y-87699349D01*
X214106000Y-87739349D02*
X211098000Y-87739349D01*
X209018000Y-87739349D02*
X206010000Y-87739349D01*
X214100000Y-87779349D02*
X211098000Y-87779349D01*
X209018000Y-87779349D02*
X206016000Y-87779349D01*
X214095000Y-87819349D02*
X211098000Y-87819349D01*
X209018000Y-87819349D02*
X206021000Y-87819349D01*
X214088000Y-87859349D02*
X211098000Y-87859349D01*
X209018000Y-87859349D02*
X206028000Y-87859349D01*
X214082000Y-87899349D02*
X211098000Y-87899349D01*
X209018000Y-87899349D02*
X206034000Y-87899349D01*
X214075000Y-87940349D02*
X211098000Y-87940349D01*
X209018000Y-87940349D02*
X206041000Y-87940349D01*
X214068000Y-87980349D02*
X211098000Y-87980349D01*
X209018000Y-87980349D02*
X206048000Y-87980349D01*
X214060000Y-88020349D02*
X211098000Y-88020349D01*
X209018000Y-88020349D02*
X206056000Y-88020349D01*
X214052000Y-88060349D02*
X211098000Y-88060349D01*
X209018000Y-88060349D02*
X206064000Y-88060349D01*
X214043000Y-88100349D02*
X211098000Y-88100349D01*
X209018000Y-88100349D02*
X206073000Y-88100349D01*
X214034000Y-88140349D02*
X211098000Y-88140349D01*
X209018000Y-88140349D02*
X206082000Y-88140349D01*
X214025000Y-88180349D02*
X211098000Y-88180349D01*
X209018000Y-88180349D02*
X206091000Y-88180349D01*
X214015000Y-88220349D02*
X211098000Y-88220349D01*
X209018000Y-88220349D02*
X206101000Y-88220349D01*
X214005000Y-88260349D02*
X211098000Y-88260349D01*
X209018000Y-88260349D02*
X206111000Y-88260349D01*
X213994000Y-88300349D02*
X211098000Y-88300349D01*
X209018000Y-88300349D02*
X206122000Y-88300349D01*
X213983000Y-88340349D02*
X211098000Y-88340349D01*
X209018000Y-88340349D02*
X206133000Y-88340349D01*
X213972000Y-88380349D02*
X211098000Y-88380349D01*
X209018000Y-88380349D02*
X206144000Y-88380349D01*
X213960000Y-88420349D02*
X211098000Y-88420349D01*
X209018000Y-88420349D02*
X206156000Y-88420349D01*
X213947000Y-88460349D02*
X211098000Y-88460349D01*
X209018000Y-88460349D02*
X206169000Y-88460349D01*
X213935000Y-88500349D02*
X211098000Y-88500349D01*
X209018000Y-88500349D02*
X206181000Y-88500349D01*
X213921000Y-88540349D02*
X211098000Y-88540349D01*
X209018000Y-88540349D02*
X206195000Y-88540349D01*
X213908000Y-88580349D02*
X211098000Y-88580349D01*
X209018000Y-88580349D02*
X206208000Y-88580349D01*
X213893000Y-88620349D02*
X211098000Y-88620349D01*
X209018000Y-88620349D02*
X206223000Y-88620349D01*
X213879000Y-88660349D02*
X211098000Y-88660349D01*
X209018000Y-88660349D02*
X206237000Y-88660349D01*
X213863000Y-88700349D02*
X211098000Y-88700349D01*
X209018000Y-88700349D02*
X206253000Y-88700349D01*
X213848000Y-88740349D02*
X211098000Y-88740349D01*
X209018000Y-88740349D02*
X206268000Y-88740349D01*
X213832000Y-88780349D02*
X211098000Y-88780349D01*
X209018000Y-88780349D02*
X206284000Y-88780349D01*
X213815000Y-88820349D02*
X211098000Y-88820349D01*
X209018000Y-88820349D02*
X206301000Y-88820349D01*
X213798000Y-88860349D02*
X211098000Y-88860349D01*
X209018000Y-88860349D02*
X206318000Y-88860349D01*
X213780000Y-88900349D02*
X211098000Y-88900349D01*
X209018000Y-88900349D02*
X206336000Y-88900349D01*
X213762000Y-88940349D02*
X211098000Y-88940349D01*
X209018000Y-88940349D02*
X206354000Y-88940349D01*
X213744000Y-88980349D02*
X211098000Y-88980349D01*
X209018000Y-88980349D02*
X206372000Y-88980349D01*
X213724000Y-89020349D02*
X211098000Y-89020349D01*
X209018000Y-89020349D02*
X206392000Y-89020349D01*
X213705000Y-89060349D02*
X211098000Y-89060349D01*
X209018000Y-89060349D02*
X206411000Y-89060349D01*
X213685000Y-89100349D02*
X211098000Y-89100349D01*
X209018000Y-89100349D02*
X206431000Y-89100349D01*
X213664000Y-89140349D02*
X211098000Y-89140349D01*
X209018000Y-89140349D02*
X206452000Y-89140349D01*
X213642000Y-89180349D02*
X211098000Y-89180349D01*
X209018000Y-89180349D02*
X206474000Y-89180349D01*
X213620000Y-89220349D02*
X211098000Y-89220349D01*
X209018000Y-89220349D02*
X206496000Y-89220349D01*
X213598000Y-89260349D02*
X211098000Y-89260349D01*
X209018000Y-89260349D02*
X206518000Y-89260349D01*
X213575000Y-89300349D02*
X211098000Y-89300349D01*
X209018000Y-89300349D02*
X206541000Y-89300349D01*
X213551000Y-89340349D02*
X211098000Y-89340349D01*
X209018000Y-89340349D02*
X206565000Y-89340349D01*
X213527000Y-89380349D02*
X211098000Y-89380349D01*
X209018000Y-89380349D02*
X206589000Y-89380349D01*
X213502000Y-89420349D02*
X211098000Y-89420349D01*
X209018000Y-89420349D02*
X206614000Y-89420349D01*
X213476000Y-89460349D02*
X211098000Y-89460349D01*
X209018000Y-89460349D02*
X206640000Y-89460349D01*
X213450000Y-89500349D02*
X211098000Y-89500349D01*
X209018000Y-89500349D02*
X206666000Y-89500349D01*
X213423000Y-89540349D02*
X206693000Y-89540349D01*
X213396000Y-89580349D02*
X206720000Y-89580349D01*
X213367000Y-89620349D02*
X206749000Y-89620349D01*
X213338000Y-89660349D02*
X206778000Y-89660349D01*
X213308000Y-89700349D02*
X206808000Y-89700349D01*
X213278000Y-89740349D02*
X206838000Y-89740349D01*
X213247000Y-89780349D02*
X206869000Y-89780349D01*
X213214000Y-89820349D02*
X206902000Y-89820349D01*
X213182000Y-89860349D02*
X206934000Y-89860349D01*
X213148000Y-89900349D02*
X206968000Y-89900349D01*
X213113000Y-89940349D02*
X207003000Y-89940349D01*
X213077000Y-89980349D02*
X207039000Y-89980349D01*
X213041000Y-90020349D02*
X207075000Y-90020349D01*
X213003000Y-90060349D02*
X207113000Y-90060349D01*
X212965000Y-90100349D02*
X207151000Y-90100349D01*
X212925000Y-90140349D02*
X207191000Y-90140349D01*
X212884000Y-90180349D02*
X207232000Y-90180349D01*
X212842000Y-90220349D02*
X207274000Y-90220349D01*
X212799000Y-90260349D02*
X207317000Y-90260349D01*
X212755000Y-90300349D02*
X207361000Y-90300349D01*
X212709000Y-90340349D02*
X207407000Y-90340349D01*
X212662000Y-90380349D02*
X207454000Y-90380349D01*
X212614000Y-90420349D02*
X207502000Y-90420349D01*
X212563000Y-90460349D02*
X207553000Y-90460349D01*
X212512000Y-90500349D02*
X207604000Y-90500349D01*
X212458000Y-90540349D02*
X207658000Y-90540349D01*
X212403000Y-90580349D02*
X207713000Y-90580349D01*
X212345000Y-90620349D02*
X207771000Y-90620349D01*
X212286000Y-90660349D02*
X207830000Y-90660349D01*
X212224000Y-90700349D02*
X207892000Y-90700349D01*
X212160000Y-90740349D02*
X207956000Y-90740349D01*
X212092000Y-90780349D02*
X208024000Y-90780349D01*
X212022000Y-90820349D02*
X208094000Y-90820349D01*
X211948000Y-90860349D02*
X208168000Y-90860349D01*
X211871000Y-90900349D02*
X208245000Y-90900349D01*
X211789000Y-90940349D02*
X208327000Y-90940349D01*
X211703000Y-90980349D02*
X208413000Y-90980349D01*
X211610000Y-91020349D02*
X208506000Y-91020349D01*
X211511000Y-91060349D02*
X208605000Y-91060349D01*
X211404000Y-91100349D02*
X208712000Y-91100349D01*
X211287000Y-91140349D02*
X208829000Y-91140349D01*
X211156000Y-91180349D02*
X208960000Y-91180349D01*
X211006000Y-91220349D02*
X209110000Y-91220349D01*
X210826000Y-91260349D02*
X209290000Y-91260349D01*
X210591000Y-91300349D02*
X209525000Y-91300349D01*
X214178000Y-87219349D02*
G75*
G03*
X214178000Y-87219349I-4120000J0D01*
G01*
%TO.C,R6*%
X209930276Y-114412500D02*
X210439724Y-114412500D01*
X209930276Y-115457500D02*
X210439724Y-115457500D01*
%TO.C,J2*%
X170065000Y-116904000D02*
X169065000Y-116904000D01*
X169065000Y-116904000D02*
X169565000Y-117404000D01*
X169565000Y-117404000D02*
X170065000Y-116904000D01*
X173445000Y-117589000D02*
X155485000Y-117589000D01*
X155485000Y-117589000D02*
X155485000Y-133109000D01*
X173445000Y-133109000D02*
X173445000Y-117589000D01*
X173445000Y-133109000D02*
X155485000Y-133109000D01*
D11*
%TO.C,U4*%
X184150000Y-137160000D02*
X194310000Y-137160000D01*
X194310000Y-137160000D02*
X194310000Y-104140000D01*
X184150000Y-104140000D02*
X184150000Y-137160000D01*
X194310000Y-104140000D02*
X184150000Y-104140000D01*
D12*
%TO.C,R10*%
X167640724Y-104754000D02*
X167131276Y-104754000D01*
X167640724Y-103709000D02*
X167131276Y-103709000D01*
%TO.C,SW2*%
X137270000Y-62162500D02*
X135887000Y-62162500D01*
X137270000Y-62162500D02*
X137270000Y-63546500D01*
X137030000Y-62402500D02*
X111870000Y-62402500D01*
X137030000Y-62402500D02*
X137030000Y-72302500D01*
X111870000Y-62402500D02*
X111870000Y-72302500D01*
X135245000Y-65322500D02*
X133975000Y-65322500D01*
X135125000Y-65322500D02*
X135125000Y-66675833D01*
X135005000Y-65322500D02*
X135005000Y-66675833D01*
X134885000Y-65322500D02*
X134885000Y-66675833D01*
X134765000Y-65322500D02*
X134765000Y-66675833D01*
X134645000Y-65322500D02*
X134645000Y-66675833D01*
X134525000Y-65322500D02*
X134525000Y-66675833D01*
X134405000Y-65322500D02*
X134405000Y-66675833D01*
X134285000Y-65322500D02*
X134285000Y-66675833D01*
X134165000Y-65322500D02*
X134165000Y-66675833D01*
X134045000Y-65322500D02*
X134045000Y-66675833D01*
X133975000Y-65322500D02*
X133975000Y-69382500D01*
X132705000Y-65322500D02*
X131435000Y-65322500D01*
X132585000Y-65322500D02*
X132585000Y-66675833D01*
X132465000Y-65322500D02*
X132465000Y-66675833D01*
X132345000Y-65322500D02*
X132345000Y-66675833D01*
X132225000Y-65322500D02*
X132225000Y-66675833D01*
X132105000Y-65322500D02*
X132105000Y-66675833D01*
X131985000Y-65322500D02*
X131985000Y-66675833D01*
X131865000Y-65322500D02*
X131865000Y-66675833D01*
X131745000Y-65322500D02*
X131745000Y-66675833D01*
X131625000Y-65322500D02*
X131625000Y-66675833D01*
X131505000Y-65322500D02*
X131505000Y-66675833D01*
X131435000Y-65322500D02*
X131435000Y-69382500D01*
X130165000Y-65322500D02*
X128895000Y-65322500D01*
X130045000Y-65322500D02*
X130045000Y-66675833D01*
X129925000Y-65322500D02*
X129925000Y-66675833D01*
X129805000Y-65322500D02*
X129805000Y-66675833D01*
X129685000Y-65322500D02*
X129685000Y-66675833D01*
X129565000Y-65322500D02*
X129565000Y-66675833D01*
X129445000Y-65322500D02*
X129445000Y-66675833D01*
X129325000Y-65322500D02*
X129325000Y-66675833D01*
X129205000Y-65322500D02*
X129205000Y-66675833D01*
X129085000Y-65322500D02*
X129085000Y-66675833D01*
X128965000Y-65322500D02*
X128965000Y-66675833D01*
X128895000Y-65322500D02*
X128895000Y-69382500D01*
X127625000Y-65322500D02*
X126355000Y-65322500D01*
X127505000Y-65322500D02*
X127505000Y-66675833D01*
X127385000Y-65322500D02*
X127385000Y-66675833D01*
X127265000Y-65322500D02*
X127265000Y-66675833D01*
X127145000Y-65322500D02*
X127145000Y-66675833D01*
X127025000Y-65322500D02*
X127025000Y-66675833D01*
X126905000Y-65322500D02*
X126905000Y-66675833D01*
X126785000Y-65322500D02*
X126785000Y-66675833D01*
X126665000Y-65322500D02*
X126665000Y-66675833D01*
X126545000Y-65322500D02*
X126545000Y-66675833D01*
X126425000Y-65322500D02*
X126425000Y-66675833D01*
X126355000Y-65322500D02*
X126355000Y-69382500D01*
X125085000Y-65322500D02*
X123815000Y-65322500D01*
X124965000Y-65322500D02*
X124965000Y-66675833D01*
X124845000Y-65322500D02*
X124845000Y-66675833D01*
X124725000Y-65322500D02*
X124725000Y-66675833D01*
X124605000Y-65322500D02*
X124605000Y-66675833D01*
X124485000Y-65322500D02*
X124485000Y-66675833D01*
X124365000Y-65322500D02*
X124365000Y-66675833D01*
X124245000Y-65322500D02*
X124245000Y-66675833D01*
X124125000Y-65322500D02*
X124125000Y-66675833D01*
X124005000Y-65322500D02*
X124005000Y-66675833D01*
X123885000Y-65322500D02*
X123885000Y-66675833D01*
X123815000Y-65322500D02*
X123815000Y-69382500D01*
X122545000Y-65322500D02*
X121275000Y-65322500D01*
X122425000Y-65322500D02*
X122425000Y-66675833D01*
X122305000Y-65322500D02*
X122305000Y-66675833D01*
X122185000Y-65322500D02*
X122185000Y-66675833D01*
X122065000Y-65322500D02*
X122065000Y-66675833D01*
X121945000Y-65322500D02*
X121945000Y-66675833D01*
X121825000Y-65322500D02*
X121825000Y-66675833D01*
X121705000Y-65322500D02*
X121705000Y-66675833D01*
X121585000Y-65322500D02*
X121585000Y-66675833D01*
X121465000Y-65322500D02*
X121465000Y-66675833D01*
X121345000Y-65322500D02*
X121345000Y-66675833D01*
X121275000Y-65322500D02*
X121275000Y-69382500D01*
X120005000Y-65322500D02*
X118735000Y-65322500D01*
X119885000Y-65322500D02*
X119885000Y-66675833D01*
X119765000Y-65322500D02*
X119765000Y-66675833D01*
X119645000Y-65322500D02*
X119645000Y-66675833D01*
X119525000Y-65322500D02*
X119525000Y-66675833D01*
X119405000Y-65322500D02*
X119405000Y-66675833D01*
X119285000Y-65322500D02*
X119285000Y-66675833D01*
X119165000Y-65322500D02*
X119165000Y-66675833D01*
X119045000Y-65322500D02*
X119045000Y-66675833D01*
X118925000Y-65322500D02*
X118925000Y-66675833D01*
X118805000Y-65322500D02*
X118805000Y-66675833D01*
X118735000Y-65322500D02*
X118735000Y-69382500D01*
X117465000Y-65322500D02*
X116195000Y-65322500D01*
X117345000Y-65322500D02*
X117345000Y-66675833D01*
X117225000Y-65322500D02*
X117225000Y-66675833D01*
X117105000Y-65322500D02*
X117105000Y-66675833D01*
X116985000Y-65322500D02*
X116985000Y-66675833D01*
X116865000Y-65322500D02*
X116865000Y-66675833D01*
X116745000Y-65322500D02*
X116745000Y-66675833D01*
X116625000Y-65322500D02*
X116625000Y-66675833D01*
X116505000Y-65322500D02*
X116505000Y-66675833D01*
X116385000Y-65322500D02*
X116385000Y-66675833D01*
X116265000Y-65322500D02*
X116265000Y-66675833D01*
X116195000Y-65322500D02*
X116195000Y-69382500D01*
X114925000Y-65322500D02*
X113655000Y-65322500D01*
X114805000Y-65322500D02*
X114805000Y-66675833D01*
X114685000Y-65322500D02*
X114685000Y-66675833D01*
X114565000Y-65322500D02*
X114565000Y-66675833D01*
X114445000Y-65322500D02*
X114445000Y-66675833D01*
X114325000Y-65322500D02*
X114325000Y-66675833D01*
X114205000Y-65322500D02*
X114205000Y-66675833D01*
X114085000Y-65322500D02*
X114085000Y-66675833D01*
X113965000Y-65322500D02*
X113965000Y-66675833D01*
X113845000Y-65322500D02*
X113845000Y-66675833D01*
X113725000Y-65322500D02*
X113725000Y-66675833D01*
X113655000Y-65322500D02*
X113655000Y-69382500D01*
X135245000Y-66675833D02*
X133975000Y-66675833D01*
X132705000Y-66675833D02*
X131435000Y-66675833D01*
X130165000Y-66675833D02*
X128895000Y-66675833D01*
X127625000Y-66675833D02*
X126355000Y-66675833D01*
X125085000Y-66675833D02*
X123815000Y-66675833D01*
X122545000Y-66675833D02*
X121275000Y-66675833D01*
X120005000Y-66675833D02*
X118735000Y-66675833D01*
X117465000Y-66675833D02*
X116195000Y-66675833D01*
X114925000Y-66675833D02*
X113655000Y-66675833D01*
X135245000Y-69382500D02*
X135245000Y-65322500D01*
X133975000Y-69382500D02*
X135245000Y-69382500D01*
X132705000Y-69382500D02*
X132705000Y-65322500D01*
X131435000Y-69382500D02*
X132705000Y-69382500D01*
X130165000Y-69382500D02*
X130165000Y-65322500D01*
X128895000Y-69382500D02*
X130165000Y-69382500D01*
X127625000Y-69382500D02*
X127625000Y-65322500D01*
X126355000Y-69382500D02*
X127625000Y-69382500D01*
X125085000Y-69382500D02*
X125085000Y-65322500D01*
X123815000Y-69382500D02*
X125085000Y-69382500D01*
X122545000Y-69382500D02*
X122545000Y-65322500D01*
X121275000Y-69382500D02*
X122545000Y-69382500D01*
X120005000Y-69382500D02*
X120005000Y-65322500D01*
X118735000Y-69382500D02*
X120005000Y-69382500D01*
X117465000Y-69382500D02*
X117465000Y-65322500D01*
X116195000Y-69382500D02*
X117465000Y-69382500D01*
X114925000Y-69382500D02*
X114925000Y-65322500D01*
X113655000Y-69382500D02*
X114925000Y-69382500D01*
X137030000Y-72302500D02*
X111870000Y-72302500D01*
%TO.C,R7*%
X209930276Y-108062500D02*
X210439724Y-108062500D01*
X209930276Y-109107500D02*
X210439724Y-109107500D01*
%TO.C,U3*%
X141173200Y-81457800D02*
X141183969Y-64309050D01*
X141183969Y-64309050D02*
X172974000Y-64262000D01*
X146452937Y-81446579D02*
X141173200Y-81457800D01*
X165019946Y-81514549D02*
X146452937Y-81446579D01*
X165023800Y-83083400D02*
X165019946Y-81514549D01*
X170077977Y-81534000D02*
X170078400Y-83108800D01*
X170078400Y-83108800D02*
X165023800Y-83083400D01*
X172974000Y-64262000D02*
X172974000Y-81534000D01*
X172974000Y-81534000D02*
X170077977Y-81534000D01*
%TO.C,J6*%
X83420000Y-62770000D02*
X83420000Y-66770000D01*
X83710000Y-61740000D02*
X83710000Y-67760000D01*
X83710000Y-67760000D02*
X94090000Y-67760000D01*
X84290000Y-61740000D02*
X84290000Y-62340000D01*
X84290000Y-62340000D02*
X85890000Y-62340000D01*
X85090000Y-66760000D02*
X85340000Y-66230000D01*
X85090000Y-66760000D02*
X92710000Y-66760000D01*
X85090000Y-67760000D02*
X85090000Y-66760000D01*
X85340000Y-66230000D02*
X92460000Y-66230000D01*
X85340000Y-67760000D02*
X85340000Y-66760000D01*
X85890000Y-62340000D02*
X85890000Y-61740000D01*
X86830000Y-61740000D02*
X86830000Y-62340000D01*
X86830000Y-62340000D02*
X88430000Y-62340000D01*
X88430000Y-62340000D02*
X88430000Y-61740000D01*
X89370000Y-61740000D02*
X89370000Y-62340000D01*
X89370000Y-62340000D02*
X90970000Y-62340000D01*
X90970000Y-62340000D02*
X90970000Y-61740000D01*
X91910000Y-61740000D02*
X91910000Y-62340000D01*
X91910000Y-62340000D02*
X93510000Y-62340000D01*
X92460000Y-66230000D02*
X92710000Y-66760000D01*
X92460000Y-67760000D02*
X92460000Y-66760000D01*
X92710000Y-66760000D02*
X92710000Y-67760000D01*
X93510000Y-62340000D02*
X93510000Y-61740000D01*
X94090000Y-61740000D02*
X83710000Y-61740000D01*
X94090000Y-67760000D02*
X94090000Y-61740000D01*
%TO.C,J1*%
X89304000Y-118922000D02*
X91284000Y-118922000D01*
X89304000Y-118922000D02*
X89304000Y-104202000D01*
X94984000Y-118922000D02*
X103524000Y-118922000D01*
X103524000Y-118922000D02*
X103524000Y-104202000D01*
X88424000Y-115562000D02*
X88924000Y-115062000D01*
X88924000Y-115062000D02*
X88424000Y-114562000D01*
X88424000Y-114562000D02*
X88424000Y-115562000D01*
X91284000Y-104202000D02*
X89304000Y-104202000D01*
X94984000Y-104202000D02*
X103524000Y-104202000D01*
%TO.C,J4*%
X170232000Y-102000000D02*
X174232000Y-102000000D01*
X169202000Y-101710000D02*
X175222000Y-101710000D01*
X175222000Y-101710000D02*
X175222000Y-91330000D01*
X169202000Y-101130000D02*
X169802000Y-101130000D01*
X169802000Y-101130000D02*
X169802000Y-99530000D01*
X174222000Y-100330000D02*
X173692000Y-100080000D01*
X174222000Y-100330000D02*
X174222000Y-92710000D01*
X175222000Y-100330000D02*
X174222000Y-100330000D01*
X173692000Y-100080000D02*
X173692000Y-92960000D01*
X175222000Y-100080000D02*
X174222000Y-100080000D01*
X169802000Y-99530000D02*
X169202000Y-99530000D01*
X169202000Y-98590000D02*
X169802000Y-98590000D01*
X169802000Y-98590000D02*
X169802000Y-96990000D01*
X169802000Y-96990000D02*
X169202000Y-96990000D01*
X169202000Y-96050000D02*
X169802000Y-96050000D01*
X169802000Y-96050000D02*
X169802000Y-94450000D01*
X169802000Y-94450000D02*
X169202000Y-94450000D01*
X169202000Y-93510000D02*
X169802000Y-93510000D01*
X169802000Y-93510000D02*
X169802000Y-91910000D01*
X173692000Y-92960000D02*
X174222000Y-92710000D01*
X175222000Y-92960000D02*
X174222000Y-92960000D01*
X174222000Y-92710000D02*
X175222000Y-92710000D01*
X169802000Y-91910000D02*
X169202000Y-91910000D01*
X169202000Y-91330000D02*
X169202000Y-101710000D01*
X175222000Y-91330000D02*
X169202000Y-91330000D01*
%TO.C,J5*%
X162960000Y-88360000D02*
X162960000Y-84360000D01*
X162670000Y-89390000D02*
X162670000Y-83370000D01*
X162670000Y-83370000D02*
X154830000Y-83370000D01*
X162090000Y-89390000D02*
X162090000Y-88790000D01*
X162090000Y-88790000D02*
X160490000Y-88790000D01*
X161290000Y-84370000D02*
X161040000Y-84900000D01*
X161290000Y-84370000D02*
X156210000Y-84370000D01*
X161290000Y-83370000D02*
X161290000Y-84370000D01*
X161040000Y-84900000D02*
X156460000Y-84900000D01*
X161040000Y-83370000D02*
X161040000Y-84370000D01*
X160490000Y-88790000D02*
X160490000Y-89390000D01*
X159550000Y-89390000D02*
X159550000Y-88790000D01*
X159550000Y-88790000D02*
X157950000Y-88790000D01*
X157950000Y-88790000D02*
X157950000Y-89390000D01*
X157010000Y-89390000D02*
X157010000Y-88790000D01*
X157010000Y-88790000D02*
X155410000Y-88790000D01*
X156460000Y-84900000D02*
X156210000Y-84370000D01*
X156460000Y-83370000D02*
X156460000Y-84370000D01*
X156210000Y-84370000D02*
X156210000Y-83370000D01*
X155410000Y-88790000D02*
X155410000Y-89390000D01*
X154830000Y-89390000D02*
X162670000Y-89390000D01*
X154830000Y-83370000D02*
X154830000Y-89390000D01*
%TO.C,C1*%
X170685000Y-109510267D02*
X170685000Y-109217733D01*
X171705000Y-109510267D02*
X171705000Y-109217733D01*
D11*
%TO.C,U6*%
X176530000Y-100330000D02*
X204470000Y-100330000D01*
X204470000Y-100330000D02*
X204470000Y-64770000D01*
X204470000Y-64770000D02*
X176530000Y-64770000D01*
X176530000Y-64770000D02*
X176530000Y-100330000D01*
D12*
%TO.C,D1*%
X208525000Y-117375000D02*
X208525000Y-118845000D01*
X208525000Y-118845000D02*
X210985000Y-118845000D01*
X210985000Y-117375000D02*
X208525000Y-117375000D01*
%TO.C,Brd1*%
X74040000Y-95836000D02*
X101440000Y-95836000D01*
X74040000Y-123136000D02*
X74040000Y-95836000D01*
X74462000Y-99131000D02*
X97562000Y-99131000D01*
X74462000Y-115731000D02*
X74462000Y-99131000D01*
X82741000Y-96325000D02*
X82741000Y-98738000D01*
X82741000Y-96325000D02*
X92520000Y-96325000D01*
X92520000Y-96325000D02*
X92520000Y-98738000D01*
X92520000Y-98738000D02*
X82741000Y-98738000D01*
X97562000Y-99131000D02*
X100648000Y-99131000D01*
X97562000Y-115731000D02*
X74462000Y-115731000D01*
X97562000Y-115731000D02*
X100902000Y-115756000D01*
X100902000Y-99119000D02*
X100648000Y-99131000D01*
X100902000Y-115756000D02*
X100902000Y-99119000D01*
X101440000Y-95836000D02*
X101440000Y-123136000D01*
X101440000Y-123136000D02*
X74040000Y-123136000D01*
%TO.C,C18*%
X75290000Y-71196252D02*
X75290000Y-69773748D01*
X77110000Y-71196252D02*
X77110000Y-69773748D01*
D11*
%TO.C,U5*%
X195580000Y-137160000D02*
X205740000Y-137160000D01*
X205740000Y-137160000D02*
X205740000Y-104140000D01*
X195580000Y-104140000D02*
X195580000Y-137160000D01*
X205740000Y-104140000D02*
X195580000Y-104140000D01*
D12*
%TO.C,SW1*%
X163055000Y-104504000D02*
X161855000Y-104504000D01*
X162755000Y-104804000D02*
X158555000Y-104804000D01*
X158555000Y-104804000D02*
X158555000Y-106004000D01*
X163055000Y-105704000D02*
X163055000Y-104504000D01*
X162755000Y-106004000D02*
X162755000Y-104804000D01*
X162755000Y-112804000D02*
X162755000Y-114004000D01*
X162755000Y-114004000D02*
X158555000Y-114004000D01*
X158555000Y-114004000D02*
X158555000Y-112804000D01*
%TO.C,R1*%
X161289724Y-116236500D02*
X160780276Y-116236500D01*
X161289724Y-115191500D02*
X160780276Y-115191500D01*
%TD*%
%LPC*%
D13*
%TO.C,J7*%
X170688000Y-137668000D03*
D14*
X168148000Y-137668000D03*
X165608000Y-137668000D03*
X163068000Y-137668000D03*
X160528000Y-137668000D03*
X157988000Y-137668000D03*
%TD*%
D15*
%TO.C,REF\u002A\u002A*%
X70000000Y-123000000D03*
%TD*%
D16*
%TO.C,U1*%
X169290000Y-106889000D03*
X168020000Y-106889000D03*
X166750000Y-106889000D03*
X165480000Y-106889000D03*
X165480000Y-111839000D03*
X166750000Y-111839000D03*
X168020000Y-111839000D03*
X169290000Y-111839000D03*
%TD*%
D17*
%TO.C,U2*%
X76200000Y-90170000D03*
D18*
X78740000Y-90170000D03*
X81280000Y-90170000D03*
X83820000Y-90170000D03*
X86360000Y-90170000D03*
X88900000Y-90170000D03*
X91440000Y-90170000D03*
X93980000Y-90170000D03*
X96520000Y-90170000D03*
X99060000Y-90170000D03*
X101600000Y-90170000D03*
X104140000Y-90170000D03*
X106680000Y-90170000D03*
X109220000Y-90170000D03*
X111760000Y-90170000D03*
X114300000Y-90170000D03*
X116840000Y-90170000D03*
X119380000Y-90170000D03*
X121920000Y-90170000D03*
X124460000Y-90170000D03*
X127000000Y-90170000D03*
X129540000Y-90170000D03*
X132080000Y-90170000D03*
X134620000Y-90170000D03*
X134620000Y-74930000D03*
X132080000Y-74930000D03*
X129540000Y-74930000D03*
X127000000Y-74930000D03*
X124460000Y-74930000D03*
X121920000Y-74930000D03*
X119380000Y-74930000D03*
X116840000Y-74930000D03*
X114300000Y-74930000D03*
X111760000Y-74930000D03*
X109220000Y-74930000D03*
X106680000Y-74930000D03*
X104140000Y-74930000D03*
X101600000Y-74930000D03*
X99060000Y-74930000D03*
X96520000Y-74930000D03*
X93980000Y-74930000D03*
X91440000Y-74930000D03*
X88900000Y-74930000D03*
X86360000Y-74930000D03*
X83820000Y-74930000D03*
X81280000Y-74930000D03*
X78740000Y-74930000D03*
X76200000Y-74930000D03*
X78740000Y-77470000D03*
X121920000Y-87630000D03*
X121920000Y-85090000D03*
X121920000Y-82550000D03*
X121920000Y-80010000D03*
X121920000Y-77470000D03*
D17*
X82499200Y-87119200D03*
D18*
X85039200Y-87119200D03*
X87579200Y-87119200D03*
X90119200Y-87119200D03*
X92659200Y-87119200D03*
D19*
X89170000Y-77368400D03*
D20*
X89170000Y-79368400D03*
X89170000Y-81368400D03*
X91170000Y-81368400D03*
X91170000Y-79368400D03*
X91170000Y-77368400D03*
X76930000Y-81280000D03*
X76930000Y-83820000D03*
%TD*%
D21*
%TO.C,F1*%
X179070000Y-124858000D03*
X179070000Y-121158000D03*
X179070000Y-116858000D03*
X179070000Y-113158000D03*
%TD*%
D22*
%TO.C,C16*%
X81280000Y-72047500D03*
X81280000Y-68922500D03*
%TD*%
D23*
%TO.C,J3*%
X91952000Y-137795000D03*
X91952000Y-126365000D03*
D24*
X85602000Y-136525000D03*
D25*
X83062000Y-135255000D03*
X85602000Y-133985000D03*
X83062000Y-132715000D03*
X85602000Y-131445000D03*
X83062000Y-130175000D03*
X85602000Y-128905000D03*
X83062000Y-127635000D03*
D26*
X96012000Y-138705000D03*
X96012000Y-136165000D03*
X96012000Y-127995000D03*
X96012000Y-125455000D03*
D27*
X88902000Y-139825000D03*
X88902000Y-124335000D03*
%TD*%
D28*
%TO.C,SW3*%
X67945000Y-92630000D03*
D29*
X67945000Y-90130000D03*
X67945000Y-87630000D03*
X71245000Y-92630000D03*
X71245000Y-90130000D03*
X71245000Y-87630000D03*
%TD*%
D22*
%TO.C,C17*%
X173482000Y-110874000D03*
X173482000Y-107749000D03*
%TD*%
D30*
%TO.C,D2*%
X209310000Y-111760000D03*
X211060000Y-111760000D03*
%TD*%
D17*
%TO.C,C11*%
X210058000Y-85969349D03*
D18*
X210058000Y-88469349D03*
%TD*%
D15*
%TO.C,REF\u002A\u002A*%
X210000000Y-79000000D03*
%TD*%
D31*
%TO.C,R6*%
X209272500Y-114935000D03*
X211097500Y-114935000D03*
%TD*%
D32*
%TO.C,J2*%
X163215000Y-119634000D03*
X163215000Y-131064000D03*
D33*
X169565000Y-120904000D03*
D34*
X172105000Y-122174000D03*
X169565000Y-123444000D03*
X172105000Y-124714000D03*
X169565000Y-125984000D03*
X172105000Y-127254000D03*
X169565000Y-128524000D03*
X172105000Y-129794000D03*
%TD*%
D35*
%TO.C,U4*%
X186690000Y-134620000D03*
D36*
X186690000Y-132080000D03*
X186690000Y-129540000D03*
X186690000Y-127000000D03*
X186690000Y-124460000D03*
X186690000Y-121920000D03*
X186690000Y-119380000D03*
X186690000Y-116840000D03*
X186690000Y-114300000D03*
X186690000Y-111760000D03*
X186690000Y-109220000D03*
X186690000Y-106680000D03*
%TD*%
D15*
%TO.C,REF\u002A\u002A*%
X210000000Y-101000000D03*
%TD*%
D37*
%TO.C,R10*%
X168298500Y-104231500D03*
X166473500Y-104231500D03*
%TD*%
D17*
%TO.C,SW2*%
X134610000Y-63542500D03*
D38*
X132070000Y-63542500D03*
X129530000Y-63542500D03*
X126990000Y-63542500D03*
X124450000Y-63542500D03*
X121910000Y-63542500D03*
X119370000Y-63542500D03*
X116830000Y-63542500D03*
X114290000Y-63542500D03*
X114290000Y-71162500D03*
X116830000Y-71162500D03*
X119370000Y-71162500D03*
X121910000Y-71162500D03*
X124450000Y-71162500D03*
X126990000Y-71162500D03*
X129530000Y-71162500D03*
X132070000Y-71162500D03*
X134610000Y-71162500D03*
%TD*%
D15*
%TO.C,REF\u002A\u002A*%
X70000000Y-101000000D03*
%TD*%
D31*
%TO.C,R7*%
X209272500Y-108585000D03*
X211097500Y-108585000D03*
%TD*%
D39*
%TO.C,U3*%
X142544569Y-66474050D03*
X142544569Y-69014050D03*
X142544569Y-71554050D03*
X142544569Y-74094050D03*
X142544569Y-76634050D03*
X142544569Y-79174050D03*
X148984569Y-65694050D03*
X151524569Y-65694050D03*
X154064569Y-65694050D03*
X156604569Y-65694050D03*
X159144569Y-65694050D03*
X161684569Y-65694050D03*
X164224569Y-65694050D03*
X166764569Y-65694050D03*
X169304569Y-65694050D03*
%TD*%
D40*
%TO.C,J6*%
X85090000Y-64770000D03*
D14*
X87630000Y-64770000D03*
X90170000Y-64770000D03*
X92710000Y-64770000D03*
%TD*%
D41*
%TO.C,J1*%
X90424000Y-115062000D03*
D39*
X90424000Y-112562000D03*
X90424000Y-110562000D03*
X90424000Y-108062000D03*
D42*
X93134000Y-118132000D03*
X93134000Y-104992000D03*
%TD*%
D43*
%TO.C,J4*%
X172232000Y-100330000D03*
D44*
X172232000Y-97790000D03*
X172232000Y-95250000D03*
X172232000Y-92710000D03*
%TD*%
D13*
%TO.C,J5*%
X161290000Y-86360000D03*
D14*
X158750000Y-86360000D03*
X156210000Y-86360000D03*
%TD*%
D45*
%TO.C,C1*%
X171195000Y-110226500D03*
X171195000Y-108501500D03*
%TD*%
D15*
%TO.C,REF\u002A\u002A*%
X70000000Y-79000000D03*
%TD*%
D35*
%TO.C,U6*%
X177800000Y-88900000D03*
D36*
X177800000Y-86360000D03*
X177800000Y-83820000D03*
X177800000Y-81280000D03*
X177800000Y-78740000D03*
X177800000Y-76200000D03*
X203200000Y-71120000D03*
X203200000Y-73660000D03*
X203200000Y-76200000D03*
X203200000Y-78740000D03*
X203200000Y-81280000D03*
X203200000Y-83820000D03*
X203200000Y-86360000D03*
X203200000Y-88900000D03*
X203200000Y-91440000D03*
X203200000Y-93980000D03*
D42*
X187960000Y-97155000D03*
X193040000Y-97155000D03*
X187960000Y-67945000D03*
X193040000Y-67945000D03*
%TD*%
D30*
%TO.C,D1*%
X209310000Y-118110000D03*
X211060000Y-118110000D03*
%TD*%
D46*
%TO.C,Brd1*%
X83820000Y-97536000D03*
X86360000Y-97536000D03*
X88900000Y-97536000D03*
X91440000Y-97536000D03*
%TD*%
D22*
%TO.C,C18*%
X76200000Y-72047500D03*
X76200000Y-68922500D03*
%TD*%
D35*
%TO.C,U5*%
X198120000Y-134620000D03*
D36*
X198120000Y-132080000D03*
X198120000Y-129540000D03*
X198120000Y-127000000D03*
X198120000Y-124460000D03*
X198120000Y-121920000D03*
X198120000Y-119380000D03*
X198120000Y-116840000D03*
X198120000Y-114300000D03*
X198120000Y-111760000D03*
X198120000Y-109220000D03*
X198120000Y-106680000D03*
%TD*%
D15*
%TO.C,REF\u002A\u002A*%
X210000000Y-123000000D03*
%TD*%
D28*
%TO.C,SW1*%
X162305000Y-106904000D03*
D29*
X162305000Y-109404000D03*
X162305000Y-111904000D03*
X159005000Y-106904000D03*
X159005000Y-109404000D03*
X159005000Y-111904000D03*
%TD*%
D37*
%TO.C,R1*%
X161947500Y-115714000D03*
X160122500Y-115714000D03*
%TD*%
%LPD*%
M02*
