M48
; DRILL file {KiCad 7.0.7} date Mon 09 Oct 2023 04:04:33 PM EDT
; FORMAT={-:-/ absolute / inch / decimal}
; #@! TF.CreationDate,2023-10-09T16:04:33-04:00
; #@! TF.GenerationSoftware,Kicad,Pcbnew,7.0.7
; #@! TF.FileFunction,MixedPlating,1,2
FMAT,2
INCH
; #@! TA.AperFunction,Plated,PTH,ViaDrill
T1C0.0157
; #@! TA.AperFunction,Plated,PTH,ComponentDrill
T2C0.0236
; #@! TA.AperFunction,Plated,PTH,ComponentDrill
T3C0.0299
; #@! TA.AperFunction,Plated,PTH,ComponentDrill
T4C0.0300
; #@! TA.AperFunction,Plated,PTH,ComponentDrill
T5C0.0315
; #@! TA.AperFunction,Plated,PTH,ComponentDrill
T6C0.0354
; #@! TA.AperFunction,Plated,PTH,ComponentDrill
T7C0.0362
; #@! TA.AperFunction,Plated,PTH,ComponentDrill
T8C0.0394
; #@! TA.AperFunction,Plated,PTH,ComponentDrill
T9C0.0433
; #@! TA.AperFunction,Plated,PTH,ComponentDrill
T10C0.0469
; #@! TA.AperFunction,Plated,PTH,ComponentDrill
T11C0.0472
; #@! TA.AperFunction,Plated,PTH,ComponentDrill
T12C0.0630
; #@! TA.AperFunction,Plated,PTH,ComponentDrill
T13C0.0787
; #@! TA.AperFunction,Plated,PTH,ComponentDrill
T14C0.0906
; #@! TA.AperFunction,NonPlated,NPTH,ComponentDrill
T15C0.1063
; #@! TA.AperFunction,NonPlated,NPTH,ComponentDrill
T16C0.1260
; #@! TA.AperFunction,NonPlated,NPTH,ComponentDrill
T17C0.1280
%
G90
G05
T1
X2.8975Y-3.35
X2.9225Y-3.275
X3.4Y-3.64
X3.5Y-2.775
X3.5Y-3.64
X3.6Y-2.875
X3.6Y-3.64
X3.65Y-3.73
X3.7Y-3.21
X3.8Y-3.21
X4.0Y-2.775
X4.0Y-2.875
X4.13Y-2.8
X4.15Y-2.84
X5.32Y-2.7289
X5.43Y-2.73
X6.39Y-2.87
X6.39Y-2.96
X6.51Y-4.48
X6.52Y-2.87
X6.52Y-2.96
X6.74Y-4.22
X6.83Y-4.18
X7.72Y-2.8
X7.72Y-3.28
X7.72Y-3.74
T3
X6.6758Y-4.76
X6.6758Y-4.86
X6.6758Y-4.96
X6.6758Y-5.06
X6.7758Y-4.81
X6.7758Y-4.91
X6.7758Y-5.01
X6.7758Y-5.11
T4
X5.612Y-2.6171
X5.612Y-2.7171
X5.612Y-2.8171
X5.612Y-2.9171
X5.612Y-3.0171
X5.612Y-3.1171
X5.8655Y-2.5864
X5.9655Y-2.5864
X6.0655Y-2.5864
X6.1655Y-2.5864
X6.2655Y-2.5864
X6.3655Y-2.5864
X6.4655Y-2.5864
X6.5655Y-2.5864
X6.6655Y-2.5864
T5
X3.0287Y-3.2
X3.0287Y-3.3
X3.5106Y-3.046
X3.5106Y-3.1247
X3.5106Y-3.2035
X3.5894Y-3.046
X3.5894Y-3.1247
X3.5894Y-3.2035
X4.4996Y-2.5017
X4.4996Y-2.8017
X4.5996Y-2.5017
X4.5996Y-2.8017
X4.6996Y-2.5017
X4.6996Y-2.8017
X4.7996Y-2.5017
X4.7996Y-2.8017
X4.8996Y-2.5017
X4.8996Y-2.8017
X4.9996Y-2.5017
X4.9996Y-2.8017
X5.0996Y-2.5017
X5.0996Y-2.8017
X5.1996Y-2.5017
X5.1996Y-2.8017
X5.2996Y-2.5017
X5.2996Y-2.8017
X8.27Y-3.3846
X8.27Y-3.483
T6
X2.675Y-3.45
X2.675Y-3.5484
X2.675Y-3.6469
X2.8049Y-3.45
X2.8049Y-3.5484
X2.8049Y-3.6469
X3.2702Y-5.025
X3.2702Y-5.125
X3.2702Y-5.225
X3.2702Y-5.325
X3.3702Y-5.075
X3.3702Y-5.175
X3.3702Y-5.275
X3.3702Y-5.375
X6.26Y-4.2088
X6.26Y-4.3072
X6.26Y-4.4057
X6.39Y-4.2088
X6.39Y-4.3072
X6.39Y-4.4057
T7
X3.56Y-4.2544
X3.56Y-4.3528
X3.56Y-4.4316
X3.56Y-4.53
T8
X3.3Y-3.84
X3.4Y-3.84
X3.5Y-3.84
X3.6Y-3.84
T9
X3.0Y-2.95
X3.0Y-3.55
X3.1Y-2.95
X3.1Y-3.05
X3.1Y-3.55
X3.2Y-2.95
X3.2Y-3.55
X3.248Y-3.4299
X3.3Y-2.95
X3.3Y-3.55
X3.348Y-3.4299
X3.4Y-2.95
X3.4Y-3.55
X3.448Y-3.4299
X3.5Y-2.95
X3.5Y-3.55
X3.548Y-3.4299
X3.6Y-2.95
X3.6Y-3.55
X3.648Y-3.4299
X3.7Y-2.95
X3.7Y-3.55
X3.78Y-4.9392
X3.78Y-5.0392
X3.78Y-5.3608
X3.78Y-5.4608
X3.8Y-2.95
X3.8Y-3.55
X3.9Y-2.95
X3.9Y-3.55
X4.0Y-2.95
X4.0Y-3.55
X4.1Y-2.95
X4.1Y-3.55
X4.2Y-2.95
X4.2Y-3.55
X4.3Y-2.95
X4.3Y-3.55
X4.4Y-2.95
X4.4Y-3.55
X4.5Y-2.95
X4.5Y-3.55
X4.6Y-2.95
X4.6Y-3.55
X4.7Y-2.95
X4.7Y-3.55
X4.8Y-2.95
X4.8Y-3.05
X4.8Y-3.15
X4.8Y-3.25
X4.8Y-3.35
X4.8Y-3.45
X4.8Y-3.55
X4.9Y-2.95
X4.9Y-3.55
X5.0Y-2.95
X5.0Y-3.55
X5.1Y-2.95
X5.1Y-3.55
X5.2Y-2.95
X5.2Y-3.55
X5.3Y-2.95
X5.3Y-3.55
T10
X3.35Y-2.55
X3.45Y-2.55
X3.55Y-2.55
X3.65Y-2.55
X6.15Y-3.4
X6.22Y-5.42
X6.25Y-3.4
X6.32Y-5.42
X6.35Y-3.4
X6.42Y-5.42
X6.52Y-5.42
X6.62Y-5.42
X6.72Y-5.42
X6.7808Y-3.65
X6.7808Y-3.75
X6.7808Y-3.85
X6.7808Y-3.95
T11
X7.0Y-3.0
X7.0Y-3.1
X7.0Y-3.2
X7.0Y-3.3
X7.0Y-3.4
X7.0Y-3.5
X7.35Y-4.2
X7.35Y-4.3
X7.35Y-4.4
X7.35Y-4.5
X7.35Y-4.6
X7.35Y-4.7
X7.35Y-4.8
X7.35Y-4.9
X7.35Y-5.0
X7.35Y-5.1
X7.35Y-5.2
X7.35Y-5.3
X7.8Y-4.2
X7.8Y-4.3
X7.8Y-4.4
X7.8Y-4.5
X7.8Y-4.6
X7.8Y-4.7
X7.8Y-4.8
X7.8Y-4.9
X7.8Y-5.0
X7.8Y-5.1
X7.8Y-5.2
X7.8Y-5.3
X8.0Y-2.8
X8.0Y-2.9
X8.0Y-3.0
X8.0Y-3.1
X8.0Y-3.2
X8.0Y-3.3
X8.0Y-3.4
X8.0Y-3.5
X8.0Y-3.6
X8.0Y-3.7
T12
X3.5001Y-4.8951
X3.5001Y-5.5049
T13
X7.4Y-2.675
X7.4Y-3.825
X7.6Y-2.675
X7.6Y-3.825
T14
X3.6667Y-4.1335
X3.6667Y-4.6509
T15
X2.7559Y-3.1102
X2.7559Y-3.9764
X2.7559Y-4.8425
X8.2677Y-3.1102
X8.2677Y-3.9764
X8.2677Y-4.8425
T16
X6.4258Y-4.71
X6.4258Y-5.16
T17
X3.6202Y-4.975
X3.6202Y-5.425
T2
G00X7.0224Y-4.455
M15
G01X7.0776Y-4.455
M16
G05
G00X7.0224Y-4.6007
M15
G01X7.0776Y-4.6007
M16
G05
G00X7.0224Y-4.77
M15
G01X7.0776Y-4.77
M16
G05
G00X7.0224Y-4.9157
M15
G01X7.0776Y-4.9157
M16
G05
T0
M30
