%TF.GenerationSoftware,KiCad,Pcbnew,7.0.7*%
%TF.CreationDate,2023-10-09T15:43:46-04:00*%
%TF.ProjectId,dmxaudio,646d7861-7564-4696-9f2e-6b696361645f,rev?*%
%TF.SameCoordinates,Original*%
%TF.FileFunction,Soldermask,Top*%
%TF.FilePolarity,Negative*%
%FSLAX46Y46*%
G04 Gerber Fmt 4.6, Leading zero omitted, Abs format (unit mm)*
G04 Created by KiCad (PCBNEW 7.0.7) date 2023-10-09 15:43:46*
%MOMM*%
%LPD*%
G01*
G04 APERTURE LIST*
G04 Aperture macros list*
%AMRoundRect*
0 Rectangle with rounded corners*
0 $1 Rounding radius*
0 $2 $3 $4 $5 $6 $7 $8 $9 X,Y pos of 4 corners*
0 Add a 4 corners polygon primitive as box body*
4,1,4,$2,$3,$4,$5,$6,$7,$8,$9,$2,$3,0*
0 Add four circle primitives for the rounded corners*
1,1,$1+$1,$2,$3*
1,1,$1+$1,$4,$5*
1,1,$1+$1,$6,$7*
1,1,$1+$1,$8,$9*
0 Add four rect primitives between the rounded corners*
20,1,$1+$1,$2,$3,$4,$5,0*
20,1,$1+$1,$4,$5,$6,$7,0*
20,1,$1+$1,$6,$7,$8,$9,0*
20,1,$1+$1,$8,$9,$2,$3,0*%
G04 Aperture macros list end*
%ADD10RoundRect,0.250000X0.620000X0.845000X-0.620000X0.845000X-0.620000X-0.845000X0.620000X-0.845000X0*%
%ADD11O,1.740000X2.190000*%
%ADD12C,2.700000*%
%ADD13RoundRect,0.150000X-0.150000X0.825000X-0.150000X-0.825000X0.150000X-0.825000X0.150000X0.825000X0*%
%ADD14R,1.600000X1.600000*%
%ADD15C,1.600000*%
%ADD16R,1.300000X1.300000*%
%ADD17C,1.300000*%
%ADD18O,3.400000X1.500000*%
%ADD19RoundRect,0.250000X0.650000X-0.412500X0.650000X0.412500X-0.650000X0.412500X-0.650000X-0.412500X0*%
%ADD20C,3.250000*%
%ADD21R,1.900000X1.900000*%
%ADD22C,1.900000*%
%ADD23C,2.100000*%
%ADD24C,2.600000*%
%ADD25R,1.400000X1.400000*%
%ADD26C,1.400000*%
%ADD27RoundRect,0.237500X-0.287500X-0.237500X0.287500X-0.237500X0.287500X0.237500X-0.287500X0.237500X0*%
%ADD28RoundRect,0.237500X-0.250000X-0.237500X0.250000X-0.237500X0.250000X0.237500X-0.250000X0.237500X0*%
%ADD29C,3.200000*%
%ADD30R,1.500000X1.500000*%
%ADD31C,1.500000*%
%ADD32R,2.000000X2.000000*%
%ADD33C,2.000000*%
%ADD34RoundRect,0.237500X0.250000X0.237500X-0.250000X0.237500X-0.250000X-0.237500X0.250000X-0.237500X0*%
%ADD35O,1.600000X1.600000*%
%ADD36C,1.524000*%
%ADD37RoundRect,0.250000X-0.620000X-0.845000X0.620000X-0.845000X0.620000X0.845000X-0.620000X0.845000X0*%
%ADD38R,1.524000X1.524000*%
%ADD39C,3.500000*%
%ADD40RoundRect,0.250000X0.845000X-0.620000X0.845000X0.620000X-0.845000X0.620000X-0.845000X-0.620000X0*%
%ADD41O,2.190000X1.740000*%
%ADD42RoundRect,0.237500X0.237500X-0.300000X0.237500X0.300000X-0.237500X0.300000X-0.237500X-0.300000X0*%
%ADD43O,1.600000X2.000000*%
G04 APERTURE END LIST*
D10*
%TO.C,J7*%
X170688000Y-137668000D03*
D11*
X168148000Y-137668000D03*
X165608000Y-137668000D03*
X163068000Y-137668000D03*
X160528000Y-137668000D03*
X157988000Y-137668000D03*
%TD*%
D12*
%TO.C,REF\u002A\u002A*%
X70000000Y-123000000D03*
%TD*%
D13*
%TO.C,U1*%
X169290000Y-106889000D03*
X168020000Y-106889000D03*
X166750000Y-106889000D03*
X165480000Y-106889000D03*
X165480000Y-111839000D03*
X166750000Y-111839000D03*
X168020000Y-111839000D03*
X169290000Y-111839000D03*
%TD*%
D14*
%TO.C,U2*%
X76200000Y-90170000D03*
D15*
X78740000Y-90170000D03*
X81280000Y-90170000D03*
X83820000Y-90170000D03*
X86360000Y-90170000D03*
X88900000Y-90170000D03*
X91440000Y-90170000D03*
X93980000Y-90170000D03*
X96520000Y-90170000D03*
X99060000Y-90170000D03*
X101600000Y-90170000D03*
X104140000Y-90170000D03*
X106680000Y-90170000D03*
X109220000Y-90170000D03*
X111760000Y-90170000D03*
X114300000Y-90170000D03*
X116840000Y-90170000D03*
X119380000Y-90170000D03*
X121920000Y-90170000D03*
X124460000Y-90170000D03*
X127000000Y-90170000D03*
X129540000Y-90170000D03*
X132080000Y-90170000D03*
X134620000Y-90170000D03*
X134620000Y-74930000D03*
X132080000Y-74930000D03*
X129540000Y-74930000D03*
X127000000Y-74930000D03*
X124460000Y-74930000D03*
X121920000Y-74930000D03*
X119380000Y-74930000D03*
X116840000Y-74930000D03*
X114300000Y-74930000D03*
X111760000Y-74930000D03*
X109220000Y-74930000D03*
X106680000Y-74930000D03*
X104140000Y-74930000D03*
X101600000Y-74930000D03*
X99060000Y-74930000D03*
X96520000Y-74930000D03*
X93980000Y-74930000D03*
X91440000Y-74930000D03*
X88900000Y-74930000D03*
X86360000Y-74930000D03*
X83820000Y-74930000D03*
X81280000Y-74930000D03*
X78740000Y-74930000D03*
X76200000Y-74930000D03*
X78740000Y-77470000D03*
X121920000Y-87630000D03*
X121920000Y-85090000D03*
X121920000Y-82550000D03*
X121920000Y-80010000D03*
X121920000Y-77470000D03*
D14*
X82499200Y-87119200D03*
D15*
X85039200Y-87119200D03*
X87579200Y-87119200D03*
X90119200Y-87119200D03*
X92659200Y-87119200D03*
D16*
X89170000Y-77368400D03*
D17*
X89170000Y-79368400D03*
X89170000Y-81368400D03*
X91170000Y-81368400D03*
X91170000Y-79368400D03*
X91170000Y-77368400D03*
X76930000Y-81280000D03*
X76930000Y-83820000D03*
%TD*%
D18*
%TO.C,F1*%
X179070000Y-124858000D03*
X179070000Y-121158000D03*
X179070000Y-116858000D03*
X179070000Y-113158000D03*
%TD*%
D19*
%TO.C,C16*%
X81280000Y-72047500D03*
X81280000Y-68922500D03*
%TD*%
D20*
%TO.C,J3*%
X91952000Y-137795000D03*
X91952000Y-126365000D03*
D21*
X85602000Y-136525000D03*
D22*
X83062000Y-135255000D03*
X85602000Y-133985000D03*
X83062000Y-132715000D03*
X85602000Y-131445000D03*
X83062000Y-130175000D03*
X85602000Y-128905000D03*
X83062000Y-127635000D03*
D23*
X96012000Y-138705000D03*
X96012000Y-136165000D03*
X96012000Y-127995000D03*
X96012000Y-125455000D03*
D24*
X88902000Y-139825000D03*
X88902000Y-124335000D03*
%TD*%
D25*
%TO.C,SW3*%
X67945000Y-92630000D03*
D26*
X67945000Y-90130000D03*
X67945000Y-87630000D03*
X71245000Y-92630000D03*
X71245000Y-90130000D03*
X71245000Y-87630000D03*
%TD*%
D19*
%TO.C,C17*%
X173482000Y-110874000D03*
X173482000Y-107749000D03*
%TD*%
D27*
%TO.C,D2*%
X209310000Y-111760000D03*
X211060000Y-111760000D03*
%TD*%
D14*
%TO.C,C11*%
X210058000Y-85969349D03*
D15*
X210058000Y-88469349D03*
%TD*%
D12*
%TO.C,REF\u002A\u002A*%
X210000000Y-79000000D03*
%TD*%
D28*
%TO.C,R6*%
X209272500Y-114935000D03*
X211097500Y-114935000D03*
%TD*%
D29*
%TO.C,J2*%
X163215000Y-119634000D03*
X163215000Y-131064000D03*
D30*
X169565000Y-120904000D03*
D31*
X172105000Y-122174000D03*
X169565000Y-123444000D03*
X172105000Y-124714000D03*
X169565000Y-125984000D03*
X172105000Y-127254000D03*
X169565000Y-128524000D03*
X172105000Y-129794000D03*
%TD*%
D32*
%TO.C,U4*%
X186690000Y-134620000D03*
D33*
X186690000Y-132080000D03*
X186690000Y-129540000D03*
X186690000Y-127000000D03*
X186690000Y-124460000D03*
X186690000Y-121920000D03*
X186690000Y-119380000D03*
X186690000Y-116840000D03*
X186690000Y-114300000D03*
X186690000Y-111760000D03*
X186690000Y-109220000D03*
X186690000Y-106680000D03*
%TD*%
D12*
%TO.C,REF\u002A\u002A*%
X210000000Y-101000000D03*
%TD*%
D34*
%TO.C,R10*%
X168298500Y-104231500D03*
X166473500Y-104231500D03*
%TD*%
D14*
%TO.C,SW2*%
X134610000Y-63542500D03*
D35*
X132070000Y-63542500D03*
X129530000Y-63542500D03*
X126990000Y-63542500D03*
X124450000Y-63542500D03*
X121910000Y-63542500D03*
X119370000Y-63542500D03*
X116830000Y-63542500D03*
X114290000Y-63542500D03*
X114290000Y-71162500D03*
X116830000Y-71162500D03*
X119370000Y-71162500D03*
X121910000Y-71162500D03*
X124450000Y-71162500D03*
X126990000Y-71162500D03*
X129530000Y-71162500D03*
X132070000Y-71162500D03*
X134610000Y-71162500D03*
%TD*%
D12*
%TO.C,REF\u002A\u002A*%
X70000000Y-101000000D03*
%TD*%
D28*
%TO.C,R7*%
X209272500Y-108585000D03*
X211097500Y-108585000D03*
%TD*%
D36*
%TO.C,U3*%
X142544569Y-66474050D03*
X142544569Y-69014050D03*
X142544569Y-71554050D03*
X142544569Y-74094050D03*
X142544569Y-76634050D03*
X142544569Y-79174050D03*
X148984569Y-65694050D03*
X151524569Y-65694050D03*
X154064569Y-65694050D03*
X156604569Y-65694050D03*
X159144569Y-65694050D03*
X161684569Y-65694050D03*
X164224569Y-65694050D03*
X166764569Y-65694050D03*
X169304569Y-65694050D03*
%TD*%
D37*
%TO.C,J6*%
X85090000Y-64770000D03*
D11*
X87630000Y-64770000D03*
X90170000Y-64770000D03*
X92710000Y-64770000D03*
%TD*%
D38*
%TO.C,J1*%
X90424000Y-115062000D03*
D36*
X90424000Y-112562000D03*
X90424000Y-110562000D03*
X90424000Y-108062000D03*
D39*
X93134000Y-118132000D03*
X93134000Y-104992000D03*
%TD*%
D40*
%TO.C,J4*%
X172232000Y-100330000D03*
D41*
X172232000Y-97790000D03*
X172232000Y-95250000D03*
X172232000Y-92710000D03*
%TD*%
D10*
%TO.C,J5*%
X161290000Y-86360000D03*
D11*
X158750000Y-86360000D03*
X156210000Y-86360000D03*
%TD*%
D42*
%TO.C,C1*%
X171195000Y-110226500D03*
X171195000Y-108501500D03*
%TD*%
D12*
%TO.C,REF\u002A\u002A*%
X70000000Y-79000000D03*
%TD*%
D32*
%TO.C,U6*%
X177800000Y-88900000D03*
D33*
X177800000Y-86360000D03*
X177800000Y-83820000D03*
X177800000Y-81280000D03*
X177800000Y-78740000D03*
X177800000Y-76200000D03*
X203200000Y-71120000D03*
X203200000Y-73660000D03*
X203200000Y-76200000D03*
X203200000Y-78740000D03*
X203200000Y-81280000D03*
X203200000Y-83820000D03*
X203200000Y-86360000D03*
X203200000Y-88900000D03*
X203200000Y-91440000D03*
X203200000Y-93980000D03*
D39*
X187960000Y-97155000D03*
X193040000Y-97155000D03*
X187960000Y-67945000D03*
X193040000Y-67945000D03*
%TD*%
D27*
%TO.C,D1*%
X209310000Y-118110000D03*
X211060000Y-118110000D03*
%TD*%
D43*
%TO.C,Brd1*%
X83820000Y-97536000D03*
X86360000Y-97536000D03*
X88900000Y-97536000D03*
X91440000Y-97536000D03*
%TD*%
D19*
%TO.C,C18*%
X76200000Y-72047500D03*
X76200000Y-68922500D03*
%TD*%
D32*
%TO.C,U5*%
X198120000Y-134620000D03*
D33*
X198120000Y-132080000D03*
X198120000Y-129540000D03*
X198120000Y-127000000D03*
X198120000Y-124460000D03*
X198120000Y-121920000D03*
X198120000Y-119380000D03*
X198120000Y-116840000D03*
X198120000Y-114300000D03*
X198120000Y-111760000D03*
X198120000Y-109220000D03*
X198120000Y-106680000D03*
%TD*%
D12*
%TO.C,REF\u002A\u002A*%
X210000000Y-123000000D03*
%TD*%
D25*
%TO.C,SW1*%
X162305000Y-106904000D03*
D26*
X162305000Y-109404000D03*
X162305000Y-111904000D03*
X159005000Y-106904000D03*
X159005000Y-109404000D03*
X159005000Y-111904000D03*
%TD*%
D34*
%TO.C,R1*%
X161947500Y-115714000D03*
X160122500Y-115714000D03*
%TD*%
M02*
